# MagicaVoxel @ Ephtracy

# group
o 

# material
mtllib zombiegirl-1.mtl
usemtl palette

# normals
vn -1 0 0
vn 1 0 0
vn 0 0 1
vn 0 0 -1
vn 0 -1 0
vn 0 1 0

# texcoords
vt 0.0527344 0.5
vt 0.185547 0.5
vt 0.236328 0.5
vt 0.267578 0.5
vt 0.373047 0.5
vt 0.494141 0.5
vt 0.876953 0.5
vt 0.939453 0.5

# verts
v -1.7 0 1
v -1.7 0 -1.1
v -1.7 4.3 1
v -1.7 4.3 -1.1
v 1.7 0 1
v 1.7 0 -1.1
v 1.7 4.3 1
v 1.7 4.3 -1.1
v -1.7 0 1
v -1.7 4.3 1
v -0.6 0 1
v -0.6 3.4 1
v -0.6 4.2 1
v 0.7 0 1
v 0.7 3.4 1
v 0.7 4.2 1
v 1.7 0 1
v 1.7 4.3 1
v -1.7 0 -1.1
v -1.7 4.3 -1.1
v 1.7 0 -1.1
v 1.7 4.3 -1.1
v -1.7 0 1
v -0.6 0 1
v 0.7 0 1
v 1.7 0 1
v -0.6 0 0.9
v 0.7 0 0.9
v -1.7 0 -1.1
v 1.7 0 -1.1
v -1.7 4.3 1
v 1.7 4.3 1
v -1.7 4.3 -1.1
v 1.7 4.3 -1.1

# faces
f 3/4/1 2/4/1 1/4/1
f 4/4/1 2/4/1 3/4/1
f 5/4/2 6/4/2 7/4/2
f 7/4/2 6/4/2 8/4/2
f 11/4/3 10/4/3 9/4/3
f 12/4/3 10/4/3 11/4/3
f 13/4/3 10/4/3 12/4/3
f 14/3/3 12/3/3 11/3/3
f 15/6/3 13/6/3 12/6/3
f 15/3/3 12/3/3 14/3/3
f 16/4/3 10/4/3 13/4/3
f 16/6/3 13/6/3 15/6/3
f 17/4/3 15/4/3 14/4/3
f 17/4/3 16/4/3 15/4/3
f 18/4/3 10/4/3 16/4/3
f 18/4/3 16/4/3 17/4/3
f 19/4/4 20/4/4 21/4/4
f 21/4/4 20/4/4 22/4/4
f 27/4/5 24/4/5 23/4/5
f 27/3/5 25/3/5 24/3/5
f 28/4/5 26/4/5 25/4/5
f 28/3/5 25/3/5 27/3/5
f 29/4/5 27/4/5 23/4/5
f 29/4/5 28/4/5 27/4/5
f 30/4/5 26/4/5 28/4/5
f 30/4/5 28/4/5 29/4/5
f 31/4/6 32/4/6 33/4/6
f 33/4/6 32/4/6 34/4/6
