# MagicaVoxel @ Ephtracy

# group
o 

# material
mtllib alex-3.mtl
usemtl palette

# normals
vn -1 0 0
vn 1 0 0
vn 0 0 1
vn 0 0 -1
vn 0 -1 0
vn 0 1 0

# texcoords
vt 0.255859 0.5
vt 0.287109 0.5
vt 0.349609 0.5
vt 0.845703 0.5
vt 0.876953 0.5

# verts
v -0.9 0.5 1
v -0.9 0.5 -1
v -0.9 1 1
v -0.9 1 -1
v -0.9 2.4 1
v -0.9 2.4 -1
v -0.5 -2.3 1
v -0.5 -2.3 -1
v -0.5 0.5 1
v -0.5 0.5 0.9
v -0.5 0.5 -0.9
v -0.5 0.5 -1
v 0.9 -2.3 1
v 0.9 -2.3 -1
v 0.9 0.5 1
v 0.9 0.5 -1
v 0.9 1 1
v 0.9 1 -1
v 0.9 2.4 1
v 0.9 2.4 -1
v -0.9 0.5 1
v -0.9 1 1
v -0.9 2.4 1
v -0.5 -2.3 1
v -0.5 0.5 1
v 0.9 -2.3 1
v 0.9 0.5 1
v 0.9 1 1
v 0.9 2.4 1
v -0.9 0.5 -1
v -0.9 1 -1
v -0.9 2.4 -1
v -0.5 -2.3 -1
v -0.5 0.5 -1
v 0.9 -2.3 -1
v 0.9 0.5 -1
v 0.9 1 -1
v 0.9 2.4 -1
v -0.5 -2.3 1
v 0.9 -2.3 1
v -0.5 -2.3 -1
v 0.9 -2.3 -1
v -0.9 0.5 1
v -0.5 0.5 1
v -0.8 0.5 0.9
v -0.5 0.5 0.9
v -0.8 0.5 -0.9
v -0.5 0.5 -0.9
v -0.9 0.5 -1
v -0.5 0.5 -1
v -0.9 2.4 1
v 0.9 2.4 1
v -0.9 2.4 -1
v 0.9 2.4 -1

# faces
f 3/2/1 2/2/1 1/2/1
f 4/2/1 2/2/1 3/2/1
f 5/3/1 4/3/1 3/3/1
f 6/3/1 4/3/1 5/3/1
f 9/1/1 8/1/1 7/1/1
f 10/1/1 8/1/1 9/1/1
f 11/1/1 8/1/1 10/1/1
f 12/1/1 8/1/1 11/1/1
f 13/1/2 14/1/2 15/1/2
f 15/1/2 14/1/2 16/1/2
f 15/2/2 16/2/2 17/2/2
f 17/2/2 16/2/2 18/2/2
f 17/3/2 18/3/2 19/3/2
f 19/3/2 18/3/2 20/3/2
f 25/2/3 22/2/3 21/2/3
f 26/1/3 25/1/3 24/1/3
f 27/2/3 22/2/3 25/2/3
f 27/1/3 25/1/3 26/1/3
f 28/3/3 23/3/3 22/3/3
f 28/2/3 22/2/3 27/2/3
f 29/3/3 23/3/3 28/3/3
f 30/2/4 31/2/4 34/2/4
f 33/1/4 34/1/4 35/1/4
f 34/2/4 31/2/4 36/2/4
f 35/1/4 34/1/4 36/1/4
f 31/3/4 32/3/4 37/3/4
f 36/2/4 31/2/4 37/2/4
f 37/3/4 32/3/4 38/3/4
f 41/1/5 40/1/5 39/1/5
f 42/1/5 40/1/5 41/1/5
f 45/2/5 44/2/5 43/2/5
f 46/2/5 44/2/5 45/2/5
f 47/2/5 45/2/5 43/2/5
f 47/3/5 46/3/5 45/3/5
f 48/3/5 46/3/5 47/3/5
f 49/2/5 47/2/5 43/2/5
f 49/2/5 48/2/5 47/2/5
f 50/2/5 48/2/5 49/2/5
f 51/3/6 52/3/6 53/3/6
f 53/3/6 52/3/6 54/3/6
