# MagicaVoxel @ Ephtracy

# group
o 

# material
mtllib alex-2.mtl
usemtl palette

# normals
vn -1 0 0
vn 1 0 0
vn 0 0 1
vn 0 0 -1
vn 0 -1 0
vn 0 1 0

# texcoords
vt 0.142578 0.5
vt 0.318359 0.5
vt 0.970703 0.5

# verts
v 0.2 -1.8 1.1
v 0.2 -1.8 -1.1
v 0.2 -1.3 1.1
v 0.2 -1.3 -1
v 0.2 -1.3 -1.1
v 0.2 1.7 1.1
v 0.2 1.7 -1
v 1.7 -1.8 1.1
v 1.7 -1.8 -1.1
v 1.7 -1.3 1.1
v 1.7 -1.3 -1
v 1.7 -1.3 -1.1
v 1.7 1.7 1.1
v 1.7 1.7 -1
v 0.2 -1.8 1.1
v 0.2 -1.3 1.1
v 0.2 1.7 1.1
v 1.7 -1.8 1.1
v 1.7 -1.3 1.1
v 1.7 1.7 1.1
v 0.2 -1.3 -1
v 0.2 1.7 -1
v 1.7 -1.3 -1
v 1.7 1.7 -1
v 0.2 -1.8 -1.1
v 0.2 -1.3 -1.1
v 1.7 -1.8 -1.1
v 1.7 -1.3 -1.1
v 0.2 -1.8 1.1
v 1.7 -1.8 1.1
v 0.2 -1.8 -1.1
v 1.7 -1.8 -1.1
v 0.2 -1.3 -1
v 1.7 -1.3 -1
v 0.2 -1.3 -1.1
v 1.7 -1.3 -1.1
v 0.2 1.7 1.1
v 1.7 1.7 1.1
v 0.2 1.7 -1
v 1.7 1.7 -1

# faces
f 3/2/1 2/2/1 1/2/1
f 4/2/1 2/2/1 3/2/1
f 5/2/1 2/2/1 4/2/1
f 6/1/1 4/1/1 3/1/1
f 7/1/1 4/1/1 6/1/1
f 8/2/2 9/2/2 10/2/2
f 10/2/2 9/2/2 11/2/2
f 11/2/2 9/2/2 12/2/2
f 10/1/2 11/1/2 13/1/2
f 13/1/2 11/1/2 14/1/2
f 18/2/3 16/2/3 15/2/3
f 19/1/3 17/1/3 16/1/3
f 19/2/3 16/2/3 18/2/3
f 20/1/3 17/1/3 19/1/3
f 21/1/4 22/1/4 23/1/4
f 23/1/4 22/1/4 24/1/4
f 25/2/4 26/2/4 27/2/4
f 27/2/4 26/2/4 28/2/4
f 31/2/5 30/2/5 29/2/5
f 32/2/5 30/2/5 31/2/5
f 33/2/6 34/2/6 35/2/6
f 35/2/6 34/2/6 36/2/6
f 37/1/6 38/1/6 39/1/6
f 39/1/6 38/1/6 40/1/6
