# MagicaVoxel @ Ephtracy

# group
o 

# material
mtllib zombie1-1.mtl
usemtl palette

# normals
vn -1 0 0
vn 1 0 0
vn 0 0 1
vn 0 0 -1
vn 0 -1 0
vn 0 1 0

# texcoords
vt 0.0527344 0.5
vt 0.185547 0.5
vt 0.236328 0.5
vt 0.275391 0.5
vt 0.337891 0.5
vt 0.373047 0.5
vt 0.494141 0.5
vt 0.876953 0.5
vt 0.939453 0.5

# verts
v -1.7 -2.1 1
v -1.7 -2.1 -1.1
v -1.7 -1.4 -0.2
v -1.7 -1.4 -0.6
v -1.7 -1 -0.2
v -1.7 -1 -0.6
v -1.7 -0.2 0.1
v -1.7 -0.2 -0.3
v -1.7 0.3 0.1
v -1.7 0.3 -0.3
v -1.7 0.9 0.5
v -1.7 0.9 0.2
v -1.7 1.2 0.5
v -1.7 1.2 0.2
v -1.7 2.2 1
v -1.7 2.2 -1.1
v 1.7 -2.1 1
v 1.7 -2.1 -1.1
v 1.7 -1.6 -0.7
v 1.7 -1.6 -1
v 1.7 -1.3 0.5
v 1.7 -1.3 0.1
v 1.7 -1 -0.7
v 1.7 -1 -1
v 1.7 -0.6 0.5
v 1.7 -0.6 0.1
v 1.7 0.2 0.6
v 1.7 0.2 0.3
v 1.7 0.4 -0.4
v 1.7 0.4 -0.6
v 1.7 0.7 0.6
v 1.7 0.7 0.3
v 1.7 0.8 -0.4
v 1.7 0.8 -0.6
v 1.7 1.4 0.3
v 1.7 1.4 0.1
v 1.7 1.6 0.3
v 1.7 1.6 0.1
v 1.7 2.2 1
v 1.7 2.2 -1.1
v -1.7 -2.1 1
v -1.7 2.2 1
v -1.3 1 1
v -1.3 1.3 1
v -1.2 -0.5 1
v -1.2 0.0999999 1
v -1 1 1
v -1 1.3 1
v -0.8 -0.5 1
v -0.8 0.0999999 1
v -0.8 0.4 1
v -0.8 0.7 1
v -0.6 1.3 1
v -0.6 2.2 1
v -0.5 0.4 1
v -0.5 0.7 1
v -0.4 -0.8 1
v -0.4 -0.3 1
v -0.3 1.1 1
v -0.3 1.3 1
v 0 -0.8 1
v 0 -0.3 1
v 0.3 -1.1 1
v 0.3 -0.8 1
v 0.4 1.1 1
v 0.4 1.3 1
v 0.7 1.3 1
v 0.7 2.2 1
v 0.8 -1.1 1
v 0.8 -0.8 1
v 0.8 0.3 1
v 0.8 0.6 1
v 1.1 0.3 1
v 1.1 0.6 1
v 1.2 -0.2 1
v 1.2 0.3 1
v 1.3 1.5 1
v 1.3 1.7 1
v 1.5 -0.2 1
v 1.5 0.3 1
v 1.5 1.5 1
v 1.5 1.7 1
v 1.7 -2.1 1
v 1.7 2.2 1
v -1.7 -2.1 -1.1
v -1.7 2.2 -1.1
v -1.3 0.5 -1.1
v -1.3 0.8 -1.1
v -1.1 0.5 -1.1
v -1.1 0.8 -1.1
v -1 -0.0999999 -1.1
v -1 0.3 -1.1
v -0.4 -0.0999999 -1.1
v -0.4 0.3 -1.1
v -0.4 1 -1.1
v -0.4 1.3 -1.1
v -0.3 -1.1 -1.1
v -0.3 -0.3 -1.1
v -0.1 1 -1.1
v -0.1 1.3 -1.1
v 0.2 -1.1 -1.1
v 0.2 -0.3 -1.1
v 0.8 0.7 -1.1
v 0.8 1.2 -1.1
v 0.9 -0.5 -1.1
v 0.9 -0.2 -1.1
v 1 0.7 -1.1
v 1 1.2 -1.1
v 1.1 -0.5 -1.1
v 1.1 -0.2 -1.1
v 1.7 -2.1 -1.1
v 1.7 2.2 -1.1
v -1.7 -2.1 1
v 1.7 -2.1 1
v -1.7 -2.1 -1.1
v 1.7 -2.1 -1.1
v -1.7 2.2 1
v -0.6 2.2 1
v 0.7 2.2 1
v 1.7 2.2 1
v -0.6 2.2 0.9
v 0.7 2.2 0.9
v -1.7 2.2 -1.1
v 1.7 2.2 -1.1

# faces
f 3/4/1 2/4/1 1/4/1
f 4/4/1 2/4/1 3/4/1
f 5/4/1 3/4/1 1/4/1
f 5/5/1 4/5/1 3/5/1
f 6/4/1 2/4/1 4/4/1
f 6/5/1 4/5/1 5/5/1
f 7/4/1 5/4/1 1/4/1
f 7/4/1 6/4/1 5/4/1
f 8/4/1 6/4/1 7/4/1
f 9/4/1 7/4/1 1/4/1
f 9/5/1 8/5/1 7/5/1
f 10/4/1 6/4/1 8/4/1
f 10/5/1 8/5/1 9/5/1
f 11/4/1 9/4/1 1/4/1
f 11/4/1 10/4/1 9/4/1
f 12/4/1 10/4/1 11/4/1
f 13/4/1 11/4/1 1/4/1
f 13/5/1 12/5/1 11/5/1
f 14/4/1 10/4/1 12/4/1
f 14/5/1 12/5/1 13/5/1
f 15/4/1 13/4/1 1/4/1
f 15/4/1 14/4/1 13/4/1
f 16/4/1 2/4/1 6/4/1
f 16/4/1 14/4/1 15/4/1
f 16/4/1 6/4/1 10/4/1
f 16/4/1 10/4/1 14/4/1
f 17/4/2 18/4/2 19/4/2
f 19/4/2 18/4/2 20/4/2
f 17/4/2 19/4/2 21/4/2
f 21/4/2 19/4/2 22/4/2
f 19/5/2 20/5/2 23/5/2
f 22/4/2 19/4/2 23/4/2
f 20/4/2 18/4/2 24/4/2
f 23/5/2 20/5/2 24/5/2
f 21/5/2 22/5/2 25/5/2
f 17/4/2 21/4/2 25/4/2
f 22/4/2 23/4/2 26/4/2
f 25/5/2 22/5/2 26/5/2
f 23/4/2 24/4/2 26/4/2
f 17/4/2 25/4/2 27/4/2
f 25/4/2 26/4/2 27/4/2
f 27/4/2 26/4/2 28/4/2
f 26/4/2 24/4/2 29/4/2
f 28/4/2 26/4/2 29/4/2
f 29/4/2 24/4/2 30/4/2
f 27/5/2 28/5/2 31/5/2
f 17/4/2 27/4/2 31/4/2
f 28/4/2 29/4/2 32/4/2
f 31/5/2 28/5/2 32/5/2
f 29/5/2 30/5/2 33/5/2
f 32/4/2 29/4/2 33/4/2
f 31/4/2 32/4/2 33/4/2
f 30/4/2 24/4/2 34/4/2
f 33/5/2 30/5/2 34/5/2
f 31/4/2 33/4/2 35/4/2
f 33/4/2 34/4/2 35/4/2
f 35/4/2 34/4/2 36/4/2
f 31/4/2 35/4/2 37/4/2
f 35/5/2 36/5/2 37/5/2
f 36/4/2 34/4/2 38/4/2
f 37/5/2 36/5/2 38/5/2
f 17/4/2 31/4/2 39/4/2
f 31/4/2 37/4/2 39/4/2
f 37/4/2 38/4/2 39/4/2
f 34/4/2 24/4/2 40/4/2
f 39/4/2 38/4/2 40/4/2
f 24/4/2 18/4/2 40/4/2
f 38/4/2 34/4/2 40/4/2
f 43/4/3 42/4/3 41/4/3
f 44/4/3 42/4/3 43/4/3
f 45/4/3 43/4/3 41/4/3
f 46/4/3 43/4/3 45/4/3
f 47/3/3 44/3/3 43/3/3
f 47/4/3 43/4/3 46/4/3
f 48/4/3 42/4/3 44/4/3
f 48/3/3 44/3/3 47/3/3
f 49/5/3 46/5/3 45/5/3
f 49/4/3 45/4/3 41/4/3
f 50/4/3 47/4/3 46/4/3
f 50/5/3 46/5/3 49/5/3
f 50/4/3 48/4/3 47/4/3
f 51/4/3 48/4/3 50/4/3
f 52/4/3 48/4/3 51/4/3
f 53/4/3 42/4/3 48/4/3
f 53/4/3 48/4/3 52/4/3
f 54/4/3 42/4/3 53/4/3
f 55/5/3 52/5/3 51/5/3
f 55/4/3 50/4/3 49/4/3
f 55/4/3 51/4/3 50/4/3
f 56/4/3 53/4/3 52/4/3
f 56/5/3 52/5/3 55/5/3
f 57/4/3 49/4/3 41/4/3
f 57/4/3 55/4/3 49/4/3
f 57/4/3 56/4/3 55/4/3
f 58/4/3 56/4/3 57/4/3
f 59/4/3 53/4/3 56/4/3
f 59/4/3 56/4/3 58/4/3
f 60/7/3 54/7/3 53/7/3
f 60/4/3 53/4/3 59/4/3
f 61/3/3 58/3/3 57/3/3
f 61/4/3 57/4/3 41/4/3
f 62/4/3 59/4/3 58/4/3
f 62/3/3 58/3/3 61/3/3
f 63/4/3 61/4/3 41/4/3
f 63/4/3 62/4/3 61/4/3
f 64/4/3 62/4/3 63/4/3
f 65/4/3 59/4/3 62/4/3
f 65/4/3 62/4/3 64/4/3
f 65/7/3 60/7/3 59/7/3
f 66/7/3 54/7/3 60/7/3
f 66/7/3 60/7/3 65/7/3
f 67/4/3 66/4/3 65/4/3
f 67/7/3 54/7/3 66/7/3
f 68/7/3 54/7/3 67/7/3
f 69/5/3 64/5/3 63/5/3
f 69/4/3 63/4/3 41/4/3
f 70/4/3 65/4/3 64/4/3
f 70/5/3 64/5/3 69/5/3
f 70/4/3 68/4/3 67/4/3
f 70/4/3 67/4/3 65/4/3
f 71/4/3 68/4/3 70/4/3
f 72/4/3 68/4/3 71/4/3
f 73/4/3 70/4/3 69/4/3
f 73/4/3 71/4/3 70/4/3
f 73/5/3 72/5/3 71/5/3
f 74/4/3 68/4/3 72/4/3
f 74/5/3 72/5/3 73/5/3
f 75/4/3 73/4/3 69/4/3
f 75/4/3 74/4/3 73/4/3
f 76/4/3 74/4/3 75/4/3
f 77/4/3 68/4/3 74/4/3
f 77/4/3 74/4/3 76/4/3
f 78/4/3 68/4/3 77/4/3
f 79/3/3 76/3/3 75/3/3
f 79/4/3 75/4/3 69/4/3
f 80/4/3 77/4/3 76/4/3
f 80/3/3 76/3/3 79/3/3
f 81/5/3 78/5/3 77/5/3
f 81/4/3 77/4/3 80/4/3
f 82/4/3 68/4/3 78/4/3
f 82/5/3 78/5/3 81/5/3
f 83/4/3 69/4/3 41/4/3
f 83/4/3 81/4/3 80/4/3
f 83/4/3 82/4/3 81/4/3
f 83/4/3 79/4/3 69/4/3
f 83/4/3 80/4/3 79/4/3
f 84/4/3 68/4/3 82/4/3
f 84/4/3 82/4/3 83/4/3
f 85/4/4 86/4/4 87/4/4
f 87/4/4 86/4/4 88/4/4
f 85/4/4 87/4/4 89/4/4
f 87/5/4 88/5/4 89/5/4
f 88/4/4 86/4/4 90/4/4
f 89/5/4 88/5/4 90/5/4
f 85/4/4 89/4/4 91/4/4
f 89/4/4 90/4/4 91/4/4
f 91/4/4 90/4/4 92/4/4
f 85/4/4 91/4/4 93/4/4
f 91/5/4 92/5/4 93/5/4
f 92/4/4 90/4/4 94/4/4
f 93/5/4 92/5/4 94/5/4
f 90/4/4 86/4/4 95/4/4
f 94/4/4 90/4/4 95/4/4
f 95/4/4 86/4/4 96/4/4
f 93/4/4 94/4/4 97/4/4
f 85/4/4 93/4/4 97/4/4
f 94/4/4 95/4/4 97/4/4
f 97/4/4 95/4/4 98/4/4
f 95/5/4 96/5/4 99/5/4
f 98/4/4 95/4/4 99/4/4
f 96/4/4 86/4/4 100/4/4
f 99/5/4 96/5/4 100/5/4
f 97/3/4 98/3/4 101/3/4
f 85/4/4 97/4/4 101/4/4
f 98/4/4 99/4/4 102/4/4
f 101/3/4 98/3/4 102/3/4
f 99/4/4 100/4/4 102/4/4
f 101/4/4 102/4/4 103/4/4
f 102/4/4 100/4/4 103/4/4
f 103/4/4 100/4/4 104/4/4
f 101/4/4 103/4/4 105/4/4
f 105/4/4 103/4/4 106/4/4
f 103/5/4 104/5/4 107/5/4
f 106/4/4 103/4/4 107/4/4
f 104/4/4 100/4/4 108/4/4
f 107/5/4 104/5/4 108/5/4
f 105/5/4 106/5/4 109/5/4
f 101/4/4 105/4/4 109/4/4
f 106/4/4 107/4/4 110/4/4
f 109/5/4 106/5/4 110/5/4
f 107/4/4 108/4/4 110/4/4
f 85/4/4 101/4/4 111/4/4
f 101/4/4 109/4/4 111/4/4
f 109/4/4 110/4/4 111/4/4
f 110/4/4 108/4/4 112/4/4
f 111/4/4 110/4/4 112/4/4
f 100/4/4 86/4/4 112/4/4
f 108/4/4 100/4/4 112/4/4
f 115/4/5 114/4/5 113/4/5
f 116/4/5 114/4/5 115/4/5
f 117/4/6 118/4/6 121/4/6
f 118/7/6 119/7/6 121/7/6
f 119/4/6 120/4/6 122/4/6
f 121/7/6 119/7/6 122/7/6
f 117/4/6 121/4/6 123/4/6
f 121/4/6 122/4/6 123/4/6
f 122/4/6 120/4/6 124/4/6
f 123/4/6 122/4/6 124/4/6
