# MagicaVoxel @ Ephtracy

# group
o 

# material
mtllib coolboy-0.mtl
usemtl palette

# normals
vn -1 0 0
vn 1 0 0
vn 0 0 1
vn 0 0 -1
vn 0 -1 0
vn 0 1 0

# texcoords
vt 0.0839844 0.5
vt 0.330078 0.5
vt 0.349609 0.5
vt 0.462891 0.5
vt 0.494141 0.5
vt 0.505859 0.5
vt 0.513672 0.5
vt 0.658203 0.5
vt 0.876953 0.5
vt 0.908203 0.5
vt 0.939453 0.5

# verts
v -1.7 -2.1 1
v -1.7 -2.1 -1.1
v -1.7 2.2 1
v -1.7 2.2 -1.1
v 1.7 -2.1 1
v 1.7 -2.1 -1.1
v 1.7 2.2 1
v 1.7 2.2 -1.1
v -1.7 -2.1 1
v -1.7 2.2 1
v -0.9 -2 1
v -0.9 -1.4 1
v -0.9 2.2 1
v -0.7 1.8 1
v -0.7 2.2 1
v -0.6 1.7 1
v -0.6 1.8 1
v -0.4 -2 1
v -0.4 -1.4 1
v -0.4 1.3 1
v -0.4 1.7 1
v -0.2 -0.2 1
v -0.2 1.3 1
v 0 -2 1
v 0 -1.4 1
v 0 -0.4 1
v 0 -0.2 1
v 0.2 -0.4 1
v 0.2 1.7 1
v 0.4 -2 1
v 0.4 -1.4 1
v 0.6 1.7 1
v 0.6 1.8 1
v 0.7 1.8 1
v 0.7 2.2 1
v 0.9 -2 1
v 0.9 -1.4 1
v 0.9 2.2 1
v 1.7 -2.1 1
v 1.7 2.2 1
v -1.7 -2.1 -1.1
v -1.7 2.2 -1.1
v 1.7 -2.1 -1.1
v 1.7 2.2 -1.1
v -1.7 -2.1 1
v 1.7 -2.1 1
v -1.7 -2.1 -1.1
v 1.7 -2.1 -1.1
v -1.7 2.2 1
v -0.9 2.2 1
v -0.7 2.2 1
v 0.7 2.2 1
v 0.9 2.2 1
v 1.7 2.2 1
v -0.9 2.2 0.9
v -0.7 2.2 0.9
v 0.7 2.2 0.9
v 0.9 2.2 0.9
v -1.7 2.2 -1.1
v 1.7 2.2 -1.1

# faces
f 3/4/1 2/4/1 1/4/1
f 4/4/1 2/4/1 3/4/1
f 5/4/2 6/4/2 7/4/2
f 7/4/2 6/4/2 8/4/2
f 11/4/3 10/4/3 9/4/3
f 12/4/3 10/4/3 11/4/3
f 13/4/3 10/4/3 12/4/3
f 14/10/3 13/10/3 12/10/3
f 15/10/3 13/10/3 14/10/3
f 16/10/3 14/10/3 12/10/3
f 17/5/3 15/5/3 14/5/3
f 17/10/3 14/10/3 16/10/3
f 18/4/3 11/4/3 9/4/3
f 18/2/3 12/2/3 11/2/3
f 19/10/3 16/10/3 12/10/3
f 19/2/3 12/2/3 18/2/3
f 20/10/3 16/10/3 19/10/3
f 21/5/3 17/5/3 16/5/3
f 21/10/3 16/10/3 20/10/3
f 22/10/3 20/10/3 19/10/3
f 23/8/3 21/8/3 20/8/3
f 23/10/3 20/10/3 22/10/3
f 24/4/3 18/4/3 9/4/3
f 24/6/3 19/6/3 18/6/3
f 25/10/3 22/10/3 19/10/3
f 25/6/3 19/6/3 24/6/3
f 26/10/3 22/10/3 25/10/3
f 27/8/3 23/8/3 22/8/3
f 27/10/3 22/10/3 26/10/3
f 28/10/3 26/10/3 25/10/3
f 28/8/3 27/8/3 26/8/3
f 29/5/3 17/5/3 21/5/3
f 29/8/3 27/8/3 28/8/3
f 29/8/3 21/8/3 23/8/3
f 29/8/3 23/8/3 27/8/3
f 30/7/3 25/7/3 24/7/3
f 30/4/3 24/4/3 9/4/3
f 31/10/3 28/10/3 25/10/3
f 31/7/3 25/7/3 30/7/3
f 31/10/3 29/10/3 28/10/3
f 32/5/3 17/5/3 29/5/3
f 32/10/3 29/10/3 31/10/3
f 33/5/3 15/5/3 17/5/3
f 33/5/3 17/5/3 32/5/3
f 34/10/3 33/10/3 32/10/3
f 34/5/3 15/5/3 33/5/3
f 35/5/3 15/5/3 34/5/3
f 36/4/3 30/4/3 9/4/3
f 36/2/3 31/2/3 30/2/3
f 37/10/3 32/10/3 31/10/3
f 37/2/3 31/2/3 36/2/3
f 37/10/3 35/10/3 34/10/3
f 37/10/3 34/10/3 32/10/3
f 38/10/3 35/10/3 37/10/3
f 39/4/3 36/4/3 9/4/3
f 39/4/3 37/4/3 36/4/3
f 39/4/3 38/4/3 37/4/3
f 40/4/3 38/4/3 39/4/3
f 41/4/4 42/4/4 43/4/4
f 43/4/4 42/4/4 44/4/4
f 47/4/5 46/4/5 45/4/5
f 48/4/5 46/4/5 47/4/5
f 49/4/6 50/4/6 55/4/6
f 50/10/6 51/10/6 55/10/6
f 51/5/6 52/5/6 56/5/6
f 55/10/6 51/10/6 56/10/6
f 52/10/6 53/10/6 57/10/6
f 56/5/6 52/5/6 57/5/6
f 53/4/6 54/4/6 58/4/6
f 57/10/6 53/10/6 58/10/6
f 56/4/6 57/4/6 59/4/6
f 55/4/6 56/4/6 59/4/6
f 57/4/6 58/4/6 59/4/6
f 49/4/6 55/4/6 59/4/6
f 58/4/6 54/4/6 60/4/6
f 59/4/6 58/4/6 60/4/6
