# MagicaVoxel @ Ephtracy

# group
o 

# material
mtllib skeleton-4.mtl
usemtl palette

# normals
vn -1 0 0
vn 1 0 0
vn 0 0 1
vn 0 0 -1
vn 0 -1 0
vn 0 1 0

# texcoords
vt 0.556641 0.5
vt 0.587891 0.5
vt 0.650391 0.5
vt 0.845703 0.5
vt 0.876953 0.5

# verts
v -0.5 -2.2 0.5
v -0.5 -2.2 0.4
v -0.5 -2.2 -0.6
v -0.5 -2.1 0.4
v -0.5 -2.1 -0.6
v -0.5 0.6 0.5
v -0.5 0.6 -0.6
v -0.5 2.2 0.5
v -0.5 2.2 -0.6
v 0.5 -2.2 0.5
v 0.5 -2.2 0.4
v 0.5 -2.2 -0.6
v 0.5 -2.1 0.4
v 0.5 -2.1 -0.6
v 0.5 0.6 0.5
v 0.5 0.6 -0.6
v 0.5 2.2 0.5
v 0.5 2.2 -0.6
v -0.5 -2.2 0.5
v -0.5 0.6 0.5
v -0.5 2.2 0.5
v 0.5 -2.2 0.5
v 0.5 0.6 0.5
v 0.5 2.2 0.5
v -0.5 -2.2 -0.6
v -0.5 -2.1 -0.6
v -0.5 0.6 -0.6
v -0.5 2.2 -0.6
v 0.5 -2.2 -0.6
v 0.5 -2.1 -0.6
v 0.5 0.6 -0.6
v 0.5 2.2 -0.6
v -0.5 -2.2 0.5
v 0.5 -2.2 0.5
v -0.5 -2.2 0.4
v 0.5 -2.2 0.4
v -0.5 -2.2 -0.6
v 0.5 -2.2 -0.6
v -0.5 2.2 0.5
v 0.5 2.2 0.5
v -0.5 2.2 -0.6
v 0.5 2.2 -0.6

# faces
f 4/1/1 2/1/1 1/1/1
f 4/3/1 3/3/1 2/3/1
f 5/3/1 3/3/1 4/3/1
f 6/1/1 4/1/1 1/1/1
f 6/1/1 5/1/1 4/1/1
f 7/1/1 5/1/1 6/1/1
f 8/2/1 7/2/1 6/2/1
f 9/2/1 7/2/1 8/2/1
f 10/1/2 11/1/2 13/1/2
f 11/3/2 12/3/2 13/3/2
f 13/3/2 12/3/2 14/3/2
f 10/1/2 13/1/2 15/1/2
f 13/1/2 14/1/2 15/1/2
f 15/1/2 14/1/2 16/1/2
f 15/2/2 16/2/2 17/2/2
f 17/2/2 16/2/2 18/2/2
f 22/1/3 20/1/3 19/1/3
f 23/2/3 21/2/3 20/2/3
f 23/1/3 20/1/3 22/1/3
f 24/2/3 21/2/3 23/2/3
f 25/3/4 26/3/4 29/3/4
f 26/1/4 27/1/4 30/1/4
f 29/3/4 26/3/4 30/3/4
f 27/2/4 28/2/4 31/2/4
f 30/1/4 27/1/4 31/1/4
f 31/2/4 28/2/4 32/2/4
f 35/1/5 34/1/5 33/1/5
f 36/1/5 34/1/5 35/1/5
f 37/3/5 36/3/5 35/3/5
f 38/3/5 36/3/5 37/3/5
f 39/2/6 40/2/6 41/2/6
f 41/2/6 40/2/6 42/2/6
