# MagicaVoxel @ Ephtracy

# group
o 

# material
mtllib skeleton-5.mtl
usemtl palette

# normals
vn -1 0 0
vn 1 0 0
vn 0 0 1
vn 0 0 -1
vn 0 -1 0
vn 0 1 0

# texcoords
vt 0.494141 0.5
vt 0.556641 0.5
vt 0.587891 0.5
vt 0.619141 0.5
vt 0.650391 0.5

# verts
v -1.7 -1.3 1.3
v -1.7 -1.3 -1.4
v -1.7 0.9 1.3
v -1.7 0.9 -1.4
v -1.7 1.4 1.3
v -1.7 1.4 -1.4
v 1.7 -1.3 1.3
v 1.7 -1.3 -1.4
v 1.7 0.9 1.3
v 1.7 0.9 -1.4
v 1.7 1.4 1.3
v 1.7 1.4 -1.4
v -1.7 -1.3 1.3
v -1.7 0.9 1.3
v -1.7 1.4 1.3
v -1.1 -0.7 1.3
v -1.1 -0.4 1.3
v -1.1 -0.1 1.3
v -1.1 0.3 1.3
v -0.3 -0.4 1.3
v -0.3 -0.1 1.3
v -0.3 0.3 1.3
v 0.3 -0.4 1.3
v 0.3 -0.1 1.3
v 0.3 0.3 1.3
v 1.1 -0.7 1.3
v 1.1 -0.4 1.3
v 1.1 -0.1 1.3
v 1.1 0.3 1.3
v 1.7 -1.3 1.3
v 1.7 0.9 1.3
v 1.7 1.4 1.3
v -1.7 -1.3 -1.4
v -1.7 0.9 -1.4
v -1.7 1.4 -1.4
v 1.7 -1.3 -1.4
v 1.7 0.9 -1.4
v 1.7 1.4 -1.4
v -1.7 -1.3 1.3
v 1.7 -1.3 1.3
v -1.7 -1.3 -1.4
v 1.7 -1.3 -1.4
v -1.7 1.4 1.3
v 1.7 1.4 1.3
v -1.7 1.4 -1.4
v 1.7 1.4 -1.4

# faces
f 3/5/1 2/5/1 1/5/1
f 4/5/1 2/5/1 3/5/1
f 5/2/1 4/2/1 3/2/1
f 6/2/1 4/2/1 5/2/1
f 7/5/2 8/5/2 9/5/2
f 9/5/2 8/5/2 10/5/2
f 9/2/2 10/2/2 11/2/2
f 11/2/2 10/2/2 12/2/2
f 16/5/3 14/5/3 13/5/3
f 17/5/3 14/5/3 16/5/3
f 18/5/3 14/5/3 17/5/3
f 19/5/3 14/5/3 18/5/3
f 20/4/3 17/4/3 16/4/3
f 20/5/3 18/5/3 17/5/3
f 21/4/3 19/4/3 18/4/3
f 21/5/3 18/5/3 20/5/3
f 22/5/3 14/5/3 19/5/3
f 22/4/3 19/4/3 21/4/3
f 23/3/3 21/3/3 20/3/3
f 23/4/3 20/4/3 16/4/3
f 24/5/3 22/5/3 21/5/3
f 24/3/3 21/3/3 23/3/3
f 25/5/3 14/5/3 22/5/3
f 25/5/3 22/5/3 24/5/3
f 26/5/3 16/5/3 13/5/3
f 26/4/3 23/4/3 16/4/3
f 27/5/3 24/5/3 23/5/3
f 27/4/3 23/4/3 26/4/3
f 28/4/3 25/4/3 24/4/3
f 28/5/3 24/5/3 27/5/3
f 29/5/3 14/5/3 25/5/3
f 29/4/3 25/4/3 28/4/3
f 30/5/3 28/5/3 27/5/3
f 30/5/3 26/5/3 13/5/3
f 30/5/3 29/5/3 28/5/3
f 30/5/3 27/5/3 26/5/3
f 31/2/3 15/2/3 14/2/3
f 31/5/3 29/5/3 30/5/3
f 31/5/3 14/5/3 29/5/3
f 32/2/3 15/2/3 31/2/3
f 33/5/4 34/5/4 36/5/4
f 34/2/4 35/2/4 37/2/4
f 36/5/4 34/5/4 37/5/4
f 37/2/4 35/2/4 38/2/4
f 41/5/5 40/5/5 39/5/5
f 42/5/5 40/5/5 41/5/5
f 43/2/6 44/2/6 45/2/6
f 45/2/6 44/2/6 46/2/6
