# MagicaVoxel @ Ephtracy

# group
o 

# material
mtllib mini_zombie_body.mtl
usemtl palette

# normals
vn -1 0 0
vn 1 0 0
vn 0 0 1
vn 0 0 -1
vn 0 -1 0
vn 0 1 0

# texcoords
vt 0.373047 0.5
vt 0.427734 0.5

# verts
v -2.3 -3.7 4.8
v -2.3 -3.7 -4.8
v -2.3 2.1 1
v -2.3 2.1 -0.8
v -2.3 2.5 1.7
v -2.3 2.5 1
v -2.3 2.5 -0.8
v -2.3 2.5 -1.5
v -2.3 3.7 4.8
v -2.3 3.7 1.7
v -2.3 3.7 -1.5
v -2.3 3.7 -4.8
v 2.3 -3.7 4.8
v 2.3 -3.7 -4.8
v 2.3 3.7 4.8
v 2.3 3.7 -4.8
v -2.3 -3.7 4.8
v -2.3 3.7 4.8
v 2.3 -3.7 4.8
v 2.3 3.7 4.8
v -2.3 -3.7 -4.8
v -2.3 3.7 -4.8
v 2.3 -3.7 -4.8
v 2.3 3.7 -4.8
v -2.3 -3.7 4.8
v 2.3 -3.7 4.8
v -2.3 -3.7 -4.8
v 2.3 -3.7 -4.8
v -2.3 3.7 4.8
v 2.3 3.7 4.8
v -2.3 3.7 1.7
v -2.2 3.7 1.7
v -2.3 3.7 -1.5
v -2.2 3.7 -1.5
v -2.3 3.7 -4.8
v 2.3 3.7 -4.8

# faces
f 3/2/1 2/2/1 1/2/1
f 4/2/1 2/2/1 3/2/1
f 5/2/1 3/2/1 1/2/1
f 6/1/1 4/1/1 3/1/1
f 6/2/1 3/2/1 5/2/1
f 7/2/1 2/2/1 4/2/1
f 7/1/1 4/1/1 6/1/1
f 8/2/1 2/2/1 7/2/1
f 9/2/1 5/2/1 1/2/1
f 10/1/1 6/1/1 5/1/1
f 10/2/1 5/2/1 9/2/1
f 10/1/1 7/1/1 6/1/1
f 10/1/1 8/1/1 7/1/1
f 11/2/1 2/2/1 8/2/1
f 11/1/1 8/1/1 10/1/1
f 12/2/1 2/2/1 11/2/1
f 13/2/2 14/2/2 15/2/2
f 15/2/2 14/2/2 16/2/2
f 19/2/3 18/2/3 17/2/3
f 20/2/3 18/2/3 19/2/3
f 21/2/4 22/2/4 23/2/4
f 23/2/4 22/2/4 24/2/4
f 27/2/5 26/2/5 25/2/5
f 28/2/5 26/2/5 27/2/5
f 29/2/6 30/2/6 31/2/6
f 31/2/6 30/2/6 32/2/6
f 31/1/6 32/1/6 33/1/6
f 32/2/6 30/2/6 34/2/6
f 33/1/6 32/1/6 34/1/6
f 33/2/6 34/2/6 35/2/6
f 34/2/6 30/2/6 36/2/6
f 35/2/6 34/2/6 36/2/6
