# MagicaVoxel @ Ephtracy

# group
o 

# material
mtllib mini_zombie_head.mtl
usemtl palette

# normals
vn -1 0 0
vn 1 0 0
vn 0 0 1
vn 0 0 -1
vn 0 -1 0
vn 0 1 0

# texcoords
vt 0.240234 0.5
vt 0.251953 0.5
vt 0.279297 0.5
vt 0.306641 0.5
vt 0.373047 0.5
vt 0.498047 0.5
vt 0.576172 0.5
vt 0.587891 0.5

# verts
v -5.5 -5.2 6.1
v -5.5 -5.2 -6.1
v -5.5 -5 1.3
v -5.5 -5 -1.5
v -5.5 -4.4 1.3
v -5.5 -4.4 -1.5
v -5.5 -3.9 1.3
v -5.5 -3.9 -1.5
v -5.5 -3.2 1.3
v -5.5 -3.2 -1.5
v -5.5 -2.6 4.5
v -5.5 -2.6 0.7
v -5.5 -2.6 -0.7
v -5.5 -2.6 -4.5
v -5.5 -1.9 4.5
v -5.5 -1.9 3.9
v -5.5 -1.9 3.2
v -5.5 -1.9 1.6
v -5.5 -1.9 1
v -5.5 -1.9 0.7
v -5.5 -1.9 -0.7
v -5.5 -1.9 -1
v -5.5 -1.9 -1.6
v -5.5 -1.9 -3.2
v -5.5 -1.9 -3.9
v -5.5 -1.9 -4.5
v -5.5 0.2 3.2
v -5.5 0.2 1.6
v -5.5 0.2 -1.6
v -5.5 0.2 -3.2
v -5.5 1.1 3.9
v -5.5 1.1 1
v -5.5 1.1 -1
v -5.5 1.1 -3.9
v -5.5 3.6 6.1
v -5.5 3.6 3.7
v -5.5 3.6 2.7
v -5.5 3.6 -2.7
v -5.5 3.6 -3.7
v -5.5 3.6 -6.1
v -5.5 3.7 3.7
v -5.5 3.7 2.7
v -5.5 3.7 -2.7
v -5.5 3.7 -3.7
v -5.5 5.2 6.1
v -5.5 5.2 -6.1
v 5.5 -5.2 6.1
v 5.5 -5.2 -6.1
v 5.5 -1.1 6.1
v 5.5 -1.1 -6.1
v 5.5 -0.9 4.9
v 5.5 -0.9 4.3
v 5.5 -0.2 4.9
v 5.5 -0.2 4.3
v 5.5 0.0999999 -2.7
v 5.5 0.0999999 -3.9
v 5.5 1.2 -2.7
v 5.5 1.2 -3.9
v 5.5 1.3 1.2
v 5.5 1.3 0.2
v 5.5 1.9 5
v 5.5 1.9 3.9
v 5.5 2.3 1.2
v 5.5 2.3 0.2
v 5.5 2.9 5
v 5.5 2.9 3.9
v 5.5 5.2 6.1
v 5.5 5.2 -6.1
v -5.5 -5.2 6.1
v -5.5 3.6 6.1
v -5.5 5.2 6.1
v -4.9 3.2 6.1
v -4.9 3.6 6.1
v -4.5 2.7 6.1
v -4.5 3.2 6.1
v -4.3 1.4 6.1
v -4.3 2.7 6.1
v -3.6 2.3 6.1
v -3.6 3.5 6.1
v -2.8 -1.1 6.1
v -2.8 1.4 6.1
v -2.8 2.3 6.1
v -2.8 3.5 6.1
v -1.5 0.8 6.1
v -1.5 2.1 6.1
v -0.6 0.8 6.1
v -0.6 2.1 6.1
v 1 -0.4 6.1
v 1 0.3 6.1
v 1.2 2.8 6.1
v 1.2 4.2 6.1
v 1.6 -0.4 6.1
v 1.6 0.3 6.1
v 1.9 2.8 6.1
v 1.9 4.2 6.1
v 3.1 1.1 6.1
v 3.1 2 6.1
v 4.1 1.1 6.1
v 4.1 2 6.1
v 4.5 -1 6.1
v 4.5 -0.2 6.1
v 5.3 -1 6.1
v 5.3 -0.2 6.1
v 5.5 -5.2 6.1
v 5.5 -1.1 6.1
v 5.5 5.2 6.1
v -5.5 -5.2 -6.1
v -5.5 3.6 -6.1
v -5.5 5.2 -6.1
v -5.4 3.2 -6.1
v -5.4 3.6 -6.1
v -4.5 2.7 -6.1
v -4.5 3.2 -6.1
v -4.3 1.4 -6.1
v -4.3 2.7 -6.1
v -2.8 -1.1 -6.1
v -2.8 1.4 -6.1
v -2.2 2.4 -6.1
v -2.2 3.4 -6.1
v -1.1 2.4 -6.1
v -1.1 3.4 -6.1
v 1 1.1 -6.1
v 1 2.6 -6.1
v 2.1 1.1 -6.1
v 2.1 2.6 -6.1
v 3.6 -0.8 -6.1
v 3.6 0 -6.1
v 3.8 3.4 -6.1
v 3.8 4.4 -6.1
v 4.5 -0.8 -6.1
v 4.5 0 -6.1
v 4.6 3.4 -6.1
v 4.6 4.4 -6.1
v 5.5 -5.2 -6.1
v 5.5 -1.1 -6.1
v 5.5 5.2 -6.1
v -5.5 -5.2 6.1
v 5.5 -5.2 6.1
v -5.4 -5.2 2.2
v -5.3 -5.2 2.2
v -5.4 -5.2 1.8
v -5.3 -5.2 1.8
v -5.5 -5.2 -6.1
v 5.5 -5.2 -6.1
v -5.5 5.2 6.1
v 5.5 5.2 6.1
v -4 5.2 5.6
v -3 5.2 5.6
v -4 5.2 4.8
v -3 5.2 4.8
v -0.0999999 5.2 2.7
v 1.1 5.2 2.7
v -0.0999999 5.2 1.4
v 1.1 5.2 1.4
v -2.6 5.2 -0.4
v -1.7 5.2 -0.4
v 3.3 5.2 -1.3
v 4.5 5.2 -1.3
v 3.3 5.2 -2.6
v 4.5 5.2 -2.6
v -2.6 5.2 -2.7
v -1.7 5.2 -2.7
v -0.2 5.2 -3.8
v 1.5 5.2 -3.8
v -0.2 5.2 -4.8
v 1.5 5.2 -4.8
v -5.5 5.2 -6.1
v 5.5 5.2 -6.1

# faces
f 3/5/1 2/5/1 1/5/1
f 4/5/1 2/5/1 3/5/1
f 5/5/1 3/5/1 1/5/1
f 5/7/1 4/7/1 3/7/1
f 6/5/1 2/5/1 4/5/1
f 6/7/1 4/7/1 5/7/1
f 7/5/1 5/5/1 1/5/1
f 7/8/1 6/8/1 5/8/1
f 8/5/1 2/5/1 6/5/1
f 8/8/1 6/8/1 7/8/1
f 9/5/1 7/5/1 1/5/1
f 9/6/1 8/6/1 7/6/1
f 10/5/1 2/5/1 8/5/1
f 10/6/1 8/6/1 9/6/1
f 11/5/1 9/5/1 1/5/1
f 11/5/1 10/5/1 9/5/1
f 12/5/1 10/5/1 11/5/1
f 13/5/1 10/5/1 12/5/1
f 14/5/1 2/5/1 10/5/1
f 14/5/1 10/5/1 13/5/1
f 15/5/1 11/5/1 1/5/1
f 15/3/1 12/3/1 11/3/1
f 16/3/1 12/3/1 15/3/1
f 17/3/1 12/3/1 16/3/1
f 18/3/1 12/3/1 17/3/1
f 19/3/1 12/3/1 18/3/1
f 20/5/1 13/5/1 12/5/1
f 20/3/1 12/3/1 19/3/1
f 21/3/1 14/3/1 13/3/1
f 21/5/1 13/5/1 20/5/1
f 22/3/1 14/3/1 21/3/1
f 23/3/1 14/3/1 22/3/1
f 24/3/1 14/3/1 23/3/1
f 25/3/1 14/3/1 24/3/1
f 26/5/1 2/5/1 14/5/1
f 26/3/1 14/3/1 25/3/1
f 27/6/1 17/6/1 16/6/1
f 27/2/1 18/2/1 17/2/1
f 28/6/1 19/6/1 18/6/1
f 28/2/1 18/2/1 27/2/1
f 29/6/1 23/6/1 22/6/1
f 29/2/1 24/2/1 23/2/1
f 30/6/1 25/6/1 24/6/1
f 30/2/1 24/2/1 29/2/1
f 31/6/1 27/6/1 16/6/1
f 31/5/1 16/5/1 15/5/1
f 31/6/1 28/6/1 27/6/1
f 32/5/1 20/5/1 19/5/1
f 32/6/1 28/6/1 31/6/1
f 32/5/1 21/5/1 20/5/1
f 32/6/1 19/6/1 28/6/1
f 32/5/1 22/5/1 21/5/1
f 33/6/1 29/6/1 22/6/1
f 33/5/1 22/5/1 32/5/1
f 33/6/1 30/6/1 29/6/1
f 34/6/1 25/6/1 30/6/1
f 34/6/1 30/6/1 33/6/1
f 34/5/1 26/5/1 25/5/1
f 35/5/1 33/5/1 32/5/1
f 35/5/1 32/5/1 31/5/1
f 35/5/1 34/5/1 33/5/1
f 35/5/1 31/5/1 15/5/1
f 35/5/1 15/5/1 1/5/1
f 36/5/1 34/5/1 35/5/1
f 37/5/1 34/5/1 36/5/1
f 38/5/1 34/5/1 37/5/1
f 39/5/1 34/5/1 38/5/1
f 40/5/1 26/5/1 34/5/1
f 40/5/1 34/5/1 39/5/1
f 40/5/1 2/5/1 26/5/1
f 41/4/1 36/4/1 35/4/1
f 41/8/1 37/8/1 36/8/1
f 42/4/1 38/4/1 37/4/1
f 42/8/1 37/8/1 41/8/1
f 43/8/1 39/8/1 38/8/1
f 43/4/1 38/4/1 42/4/1
f 44/4/1 40/4/1 39/4/1
f 44/8/1 39/8/1 43/8/1
f 45/4/1 42/4/1 41/4/1
f 45/4/1 41/4/1 35/4/1
f 45/4/1 44/4/1 43/4/1
f 45/4/1 43/4/1 42/4/1
f 46/4/1 40/4/1 44/4/1
f 46/4/1 44/4/1 45/4/1
f 47/5/2 48/5/2 49/5/2
f 49/5/2 48/5/2 50/5/2
f 49/4/2 50/4/2 51/4/2
f 51/4/2 50/4/2 52/4/2
f 49/4/2 51/4/2 53/4/2
f 51/3/2 52/3/2 53/3/2
f 52/4/2 50/4/2 54/4/2
f 53/3/2 52/3/2 54/3/2
f 53/4/2 54/4/2 55/4/2
f 54/4/2 50/4/2 55/4/2
f 55/4/2 50/4/2 56/4/2
f 53/4/2 55/4/2 57/4/2
f 55/3/2 56/3/2 57/3/2
f 56/4/2 50/4/2 58/4/2
f 57/3/2 56/3/2 58/3/2
f 53/4/2 57/4/2 59/4/2
f 57/4/2 58/4/2 59/4/2
f 59/4/2 58/4/2 60/4/2
f 49/4/2 53/4/2 61/4/2
f 53/4/2 59/4/2 61/4/2
f 61/4/2 59/4/2 62/4/2
f 59/3/2 60/3/2 63/3/2
f 62/4/2 59/4/2 63/4/2
f 60/4/2 58/4/2 64/4/2
f 63/3/2 60/3/2 64/3/2
f 61/3/2 62/3/2 65/3/2
f 49/4/2 61/4/2 65/4/2
f 62/4/2 63/4/2 66/4/2
f 65/3/2 62/3/2 66/3/2
f 63/4/2 64/4/2 66/4/2
f 49/4/2 65/4/2 67/4/2
f 65/4/2 66/4/2 67/4/2
f 66/4/2 64/4/2 68/4/2
f 67/4/2 66/4/2 68/4/2
f 58/4/2 50/4/2 68/4/2
f 64/4/2 58/4/2 68/4/2
f 72/5/3 70/5/3 69/5/3
f 73/4/3 71/4/3 70/4/3
f 73/5/3 70/5/3 72/5/3
f 74/5/3 72/5/3 69/5/3
f 75/4/3 73/4/3 72/4/3
f 75/5/3 72/5/3 74/5/3
f 76/5/3 74/5/3 69/5/3
f 77/4/3 75/4/3 74/4/3
f 77/5/3 74/5/3 76/5/3
f 78/4/3 77/4/3 76/4/3
f 79/4/3 73/4/3 75/4/3
f 79/4/3 77/4/3 78/4/3
f 79/4/3 75/4/3 77/4/3
f 80/5/3 76/5/3 69/5/3
f 81/4/3 78/4/3 76/4/3
f 81/5/3 76/5/3 80/5/3
f 82/3/3 79/3/3 78/3/3
f 82/4/3 78/4/3 81/4/3
f 83/4/3 73/4/3 79/4/3
f 83/3/3 79/3/3 82/3/3
f 84/4/3 82/4/3 81/4/3
f 84/4/3 81/4/3 80/4/3
f 84/4/3 83/4/3 82/4/3
f 85/4/3 83/4/3 84/4/3
f 86/4/3 84/4/3 80/4/3
f 86/3/3 85/3/3 84/3/3
f 87/4/3 83/4/3 85/4/3
f 87/3/3 85/3/3 86/3/3
f 88/4/3 86/4/3 80/4/3
f 88/4/3 87/4/3 86/4/3
f 89/4/3 87/4/3 88/4/3
f 90/4/3 83/4/3 87/4/3
f 90/4/3 87/4/3 89/4/3
f 91/4/3 71/4/3 73/4/3
f 91/4/3 83/4/3 90/4/3
f 91/4/3 73/4/3 83/4/3
f 92/4/3 88/4/3 80/4/3
f 92/3/3 89/3/3 88/3/3
f 93/4/3 90/4/3 89/4/3
f 93/3/3 89/3/3 92/3/3
f 94/3/3 91/3/3 90/3/3
f 94/4/3 90/4/3 93/4/3
f 94/4/3 93/4/3 92/4/3
f 95/4/3 71/4/3 91/4/3
f 95/3/3 91/3/3 94/3/3
f 96/4/3 94/4/3 92/4/3
f 96/4/3 95/4/3 94/4/3
f 97/4/3 95/4/3 96/4/3
f 98/4/3 96/4/3 92/4/3
f 98/3/3 97/3/3 96/3/3
f 99/4/3 95/4/3 97/4/3
f 99/3/3 97/3/3 98/3/3
f 100/4/3 92/4/3 80/4/3
f 100/4/3 98/4/3 92/4/3
f 100/4/3 99/4/3 98/4/3
f 101/4/3 99/4/3 100/4/3
f 102/4/3 100/4/3 80/4/3
f 102/3/3 101/3/3 100/3/3
f 103/4/3 99/4/3 101/4/3
f 103/3/3 101/3/3 102/3/3
f 104/5/3 80/5/3 69/5/3
f 105/4/3 102/4/3 80/4/3
f 105/5/3 80/5/3 104/5/3
f 105/4/3 103/4/3 102/4/3
f 106/4/3 95/4/3 99/4/3
f 106/4/3 103/4/3 105/4/3
f 106/4/3 99/4/3 103/4/3
f 106/4/3 71/4/3 95/4/3
f 107/5/4 108/5/4 110/5/4
f 108/4/4 109/4/4 111/4/4
f 110/5/4 108/5/4 111/5/4
f 107/5/4 110/5/4 112/5/4
f 110/4/4 111/4/4 113/4/4
f 112/5/4 110/5/4 113/5/4
f 107/5/4 112/5/4 114/5/4
f 112/4/4 113/4/4 115/4/4
f 114/5/4 112/5/4 115/5/4
f 107/5/4 114/5/4 116/5/4
f 114/4/4 115/4/4 117/4/4
f 116/5/4 114/5/4 117/5/4
f 116/4/4 117/4/4 118/4/4
f 117/4/4 115/4/4 118/4/4
f 113/4/4 111/4/4 119/4/4
f 118/4/4 115/4/4 119/4/4
f 115/4/4 113/4/4 119/4/4
f 116/4/4 118/4/4 120/4/4
f 118/3/4 119/3/4 120/3/4
f 119/4/4 111/4/4 121/4/4
f 120/3/4 119/3/4 121/3/4
f 116/4/4 120/4/4 122/4/4
f 120/4/4 121/4/4 122/4/4
f 122/4/4 121/4/4 123/4/4
f 116/4/4 122/4/4 124/4/4
f 122/3/4 123/3/4 124/3/4
f 123/4/4 121/4/4 125/4/4
f 124/3/4 123/3/4 125/3/4
f 116/4/4 124/4/4 126/4/4
f 124/4/4 125/4/4 126/4/4
f 126/4/4 125/4/4 127/4/4
f 121/4/4 111/4/4 128/4/4
f 127/4/4 125/4/4 128/4/4
f 125/4/4 121/4/4 128/4/4
f 111/4/4 109/4/4 129/4/4
f 128/4/4 111/4/4 129/4/4
f 126/3/4 127/3/4 130/3/4
f 116/4/4 126/4/4 130/4/4
f 127/4/4 128/4/4 131/4/4
f 130/3/4 127/3/4 131/3/4
f 128/3/4 129/3/4 132/3/4
f 131/4/4 128/4/4 132/4/4
f 130/4/4 131/4/4 132/4/4
f 129/4/4 109/4/4 133/4/4
f 132/3/4 129/3/4 133/3/4
f 107/5/4 116/5/4 134/5/4
f 116/4/4 130/4/4 135/4/4
f 134/5/4 116/5/4 135/5/4
f 130/4/4 132/4/4 135/4/4
f 132/4/4 133/4/4 135/4/4
f 133/4/4 109/4/4 136/4/4
f 135/4/4 133/4/4 136/4/4
f 139/5/5 138/5/5 137/5/5
f 140/5/5 138/5/5 139/5/5
f 141/5/5 139/5/5 137/5/5
f 141/1/5 140/1/5 139/1/5
f 142/5/5 138/5/5 140/5/5
f 142/1/5 140/1/5 141/1/5
f 143/5/5 141/5/5 137/5/5
f 143/5/5 142/5/5 141/5/5
f 144/5/5 138/5/5 142/5/5
f 144/5/5 142/5/5 143/5/5
f 145/4/6 146/4/6 147/4/6
f 147/4/6 146/4/6 148/4/6
f 145/4/6 147/4/6 149/4/6
f 147/3/6 148/3/6 149/3/6
f 148/4/6 146/4/6 150/4/6
f 149/3/6 148/3/6 150/3/6
f 149/4/6 150/4/6 151/4/6
f 150/4/6 146/4/6 151/4/6
f 151/4/6 146/4/6 152/4/6
f 149/4/6 151/4/6 153/4/6
f 151/3/6 152/3/6 153/3/6
f 152/4/6 146/4/6 154/4/6
f 153/3/6 152/3/6 154/3/6
f 149/4/6 153/4/6 155/4/6
f 153/4/6 154/4/6 155/4/6
f 155/4/6 154/4/6 156/4/6
f 154/4/6 146/4/6 157/4/6
f 156/4/6 154/4/6 157/4/6
f 157/4/6 146/4/6 158/4/6
f 156/4/6 157/4/6 159/4/6
f 157/3/6 158/3/6 159/3/6
f 158/4/6 146/4/6 160/4/6
f 159/3/6 158/3/6 160/3/6
f 155/3/6 156/3/6 161/3/6
f 149/4/6 155/4/6 161/4/6
f 159/4/6 160/4/6 162/4/6
f 161/3/6 156/3/6 162/3/6
f 156/4/6 159/4/6 162/4/6
f 161/4/6 162/4/6 163/4/6
f 162/4/6 160/4/6 163/4/6
f 163/4/6 160/4/6 164/4/6
f 161/4/6 163/4/6 165/4/6
f 163/3/6 164/3/6 165/3/6
f 164/4/6 160/4/6 166/4/6
f 165/3/6 164/3/6 166/3/6
f 145/4/6 149/4/6 167/4/6
f 149/4/6 161/4/6 167/4/6
f 165/4/6 166/4/6 167/4/6
f 161/4/6 165/4/6 167/4/6
f 166/4/6 160/4/6 168/4/6
f 167/4/6 166/4/6 168/4/6
f 160/4/6 146/4/6 168/4/6
