# MagicaVoxel @ Ephtracy

# group
o 

# material
mtllib pig-2.mtl
usemtl palette

# normals
vn -1 0 0
vn 1 0 0
vn 0 0 1
vn 0 0 -1
vn 0 -1 0
vn 0 1 0

# texcoords
vt 0.306641 0.5
vt 0.548828 0.5
vt 0.552734 0.5
vt 0.580078 0.5
vt 0.587891 0.5
vt 0.591797 0.5

# verts
v -2.5 -2.5 2.2
v -2.5 -2.5 -2.8
v -2.5 -0.5 2.2
v -2.5 -0.5 2.1
v -2.5 0.7 2.2
v -2.5 0.7 2.1
v -2.5 2.5 2.2
v -2.5 2.5 -2.8
v -1.1 -1.9 2.7
v -1.1 -1.9 2.2
v -1.1 -1.5 2.7
v -1.1 -1.5 2.6
v -1.1 -0.9 2.7
v -1.1 -0.9 2.6
v -1.1 -0.5 2.7
v -1.1 -0.5 2.2
v 1.4 -1.9 2.7
v 1.4 -1.9 2.2
v 1.4 -1.5 2.7
v 1.4 -1.5 2.6
v 1.4 -0.9 2.7
v 1.4 -0.9 2.6
v 1.4 -0.5 2.7
v 1.4 -0.5 2.2
v 2.5 -2.5 2.2
v 2.5 -2.5 -2.8
v 2.5 -0.5 2.2
v 2.5 -0.5 2.1
v 2.5 0.7 2.2
v 2.5 0.7 2.1
v 2.5 2.5 2.2
v 2.5 2.5 -2.8
v -1.1 -1.9 2.7
v -1.1 -1.5 2.7
v -1.1 -0.9 2.7
v -1.1 -0.5 2.7
v -0.5 -1.5 2.7
v -0.5 -0.9 2.7
v 0.8 -1.5 2.7
v 0.8 -0.9 2.7
v 1.4 -1.9 2.7
v 1.4 -1.5 2.7
v 1.4 -0.9 2.7
v 1.4 -0.5 2.7
v -2.5 -2.5 2.2
v -2.5 -0.5 2.2
v -2.5 0.7 2.2
v -2.5 2.5 2.2
v -1.7 -0.5 2.2
v -1.7 0.7 2.2
v -1.1 -1.9 2.2
v -1.1 -0.5 2.2
v -0.9 -0.5 2.2
v -0.9 0.7 2.2
v 0.9 -0.5 2.2
v 0.9 0.7 2.2
v 1.4 -1.9 2.2
v 1.4 -0.5 2.2
v 1.7 -0.5 2.2
v 1.7 0.7 2.2
v 2.5 -2.5 2.2
v 2.5 -0.5 2.2
v 2.5 0.7 2.2
v 2.5 2.5 2.2
v -2.5 -2.5 -2.8
v -2.5 2.5 -2.8
v 2.5 -2.5 -2.8
v 2.5 2.5 -2.8
v -2.5 -2.5 2.2
v 2.5 -2.5 2.2
v -2.5 -2.5 -2.8
v 2.5 -2.5 -2.8
v -1.1 -1.9 2.7
v 1.4 -1.9 2.7
v -1.1 -1.9 2.2
v 1.4 -1.9 2.2
v -1.1 -0.5 2.7
v 1.4 -0.5 2.7
v -1.1 -0.5 2.2
v -0.9 -0.5 2.2
v 0.9 -0.5 2.2
v 1.4 -0.5 2.2
v -2.5 2.5 2.2
v 2.5 2.5 2.2
v -2.5 2.5 -2.8
v 2.5 2.5 -2.8

# faces
f 3/4/1 2/4/1 1/4/1
f 4/4/1 2/4/1 3/4/1
f 5/6/1 4/6/1 3/6/1
f 6/4/1 2/4/1 4/4/1
f 6/6/1 4/6/1 5/6/1
f 7/4/1 6/4/1 5/4/1
f 8/4/1 2/4/1 6/4/1
f 8/4/1 6/4/1 7/4/1
f 11/4/1 10/4/1 9/4/1
f 12/4/1 10/4/1 11/4/1
f 13/2/1 12/2/1 11/2/1
f 14/4/1 10/4/1 12/4/1
f 14/2/1 12/2/1 13/2/1
f 15/4/1 14/4/1 13/4/1
f 16/4/1 10/4/1 14/4/1
f 16/4/1 14/4/1 15/4/1
f 17/4/2 18/4/2 19/4/2
f 19/4/2 18/4/2 20/4/2
f 19/2/2 20/2/2 21/2/2
f 20/4/2 18/4/2 22/4/2
f 21/2/2 20/2/2 22/2/2
f 21/4/2 22/4/2 23/4/2
f 22/4/2 18/4/2 24/4/2
f 23/4/2 22/4/2 24/4/2
f 25/4/2 26/4/2 27/4/2
f 27/4/2 26/4/2 28/4/2
f 27/6/2 28/6/2 29/6/2
f 28/4/2 26/4/2 30/4/2
f 29/6/2 28/6/2 30/6/2
f 29/4/2 30/4/2 31/4/2
f 30/4/2 26/4/2 32/4/2
f 31/4/2 30/4/2 32/4/2
f 37/4/3 34/4/3 33/4/3
f 37/2/3 35/2/3 34/2/3
f 38/4/3 36/4/3 35/4/3
f 38/2/3 35/2/3 37/2/3
f 39/4/3 37/4/3 33/4/3
f 39/3/3 38/3/3 37/3/3
f 40/4/3 36/4/3 38/4/3
f 40/3/3 38/3/3 39/3/3
f 41/4/3 39/4/3 33/4/3
f 42/2/3 40/2/3 39/2/3
f 42/4/3 39/4/3 41/4/3
f 43/4/3 36/4/3 40/4/3
f 43/2/3 40/2/3 42/2/3
f 44/4/3 36/4/3 43/4/3
f 49/4/3 46/4/3 45/4/3
f 49/6/3 47/6/3 46/6/3
f 50/4/3 48/4/3 47/4/3
f 50/6/3 47/6/3 49/6/3
f 51/4/3 49/4/3 45/4/3
f 52/5/3 50/5/3 49/5/3
f 52/4/3 49/4/3 51/4/3
f 53/5/3 50/5/3 52/5/3
f 54/4/3 48/4/3 50/4/3
f 54/5/3 50/5/3 53/5/3
f 55/4/3 54/4/3 53/4/3
f 56/4/3 48/4/3 54/4/3
f 56/4/3 54/4/3 55/4/3
f 57/4/3 51/4/3 45/4/3
f 58/5/3 56/5/3 55/5/3
f 59/5/3 56/5/3 58/5/3
f 59/4/3 58/4/3 57/4/3
f 60/4/3 48/4/3 56/4/3
f 60/5/3 56/5/3 59/5/3
f 61/4/3 59/4/3 57/4/3
f 61/4/3 57/4/3 45/4/3
f 62/6/3 60/6/3 59/6/3
f 62/4/3 59/4/3 61/4/3
f 63/4/3 48/4/3 60/4/3
f 63/6/3 60/6/3 62/6/3
f 64/4/3 48/4/3 63/4/3
f 65/4/4 66/4/4 67/4/4
f 67/4/4 66/4/4 68/4/4
f 71/4/5 70/4/5 69/4/5
f 72/4/5 70/4/5 71/4/5
f 75/4/5 74/4/5 73/4/5
f 76/4/5 74/4/5 75/4/5
f 77/4/6 78/4/6 79/4/6
f 79/4/6 78/4/6 80/4/6
f 80/4/6 78/4/6 81/4/6
f 81/4/6 78/4/6 82/4/6
f 83/4/6 84/4/6 85/4/6
f 85/4/6 84/4/6 86/4/6
