# MagicaVoxel @ Ephtracy

# group
o 

# material
mtllib pig-0.mtl
usemtl palette

# normals
vn -1 0 0
vn 1 0 0
vn 0 0 1
vn 0 0 -1
vn 0 -1 0
vn 0 1 0

# texcoords
vt 0.306641 0.5
vt 0.517578 0.5
vt 0.580078 0.5

# verts
v -1.2 -2 1.2
v -1.2 -2 1.1
v -1.2 -2 -1.3
v -1.2 -1.2 1.2
v -1.2 -1.2 1.1
v -1.2 2 1.2
v -1.2 2 -1.3
v 1.3 -2 1.2
v 1.3 -2 1.1
v 1.3 -2 -1.3
v 1.3 -1.2 1.2
v 1.3 -1.2 1.1
v 1.3 2 1.2
v 1.3 2 -1.3
v -1.2 -2 1.2
v -1.2 -1.2 1.2
v -1.2 2 1.2
v -0.4 -2 1.2
v -0.4 -1.2 1.2
v 0.5 -2 1.2
v 0.5 -1.2 1.2
v 1.3 -2 1.2
v 1.3 -1.2 1.2
v 1.3 2 1.2
v -1.2 -2 -1.3
v -1.2 2 -1.3
v 1.3 -2 -1.3
v 1.3 2 -1.3
v -1.2 -2 1.2
v -0.4 -2 1.2
v 0.5 -2 1.2
v 1.3 -2 1.2
v -1.2 -2 1.1
v -0.4 -2 1.1
v 0.5 -2 1.1
v 1.3 -2 1.1
v -1.2 -2 -1.3
v 1.3 -2 -1.3
v -1.2 2 1.2
v 1.3 2 1.2
v -1.2 2 -1.3
v 1.3 2 -1.3

# faces
f 4/2/1 2/2/1 1/2/1
f 5/3/1 3/3/1 2/3/1
f 5/2/1 2/2/1 4/2/1
f 6/3/1 5/3/1 4/3/1
f 7/3/1 3/3/1 5/3/1
f 7/3/1 5/3/1 6/3/1
f 8/2/2 9/2/2 11/2/2
f 9/3/2 10/3/2 12/3/2
f 11/2/2 9/2/2 12/2/2
f 11/3/2 12/3/2 13/3/2
f 12/3/2 10/3/2 14/3/2
f 13/3/2 12/3/2 14/3/2
f 18/2/3 16/2/3 15/2/3
f 19/3/3 17/3/3 16/3/3
f 19/2/3 16/2/3 18/2/3
f 20/3/3 19/3/3 18/3/3
f 21/3/3 17/3/3 19/3/3
f 21/3/3 19/3/3 20/3/3
f 22/2/3 21/2/3 20/2/3
f 23/3/3 17/3/3 21/3/3
f 23/2/3 21/2/3 22/2/3
f 24/3/3 17/3/3 23/3/3
f 25/3/4 26/3/4 27/3/4
f 27/3/4 26/3/4 28/3/4
f 33/2/5 30/2/5 29/2/5
f 34/3/5 31/3/5 30/3/5
f 34/2/5 30/2/5 33/2/5
f 35/2/5 32/2/5 31/2/5
f 35/3/5 31/3/5 34/3/5
f 36/2/5 32/2/5 35/2/5
f 37/3/5 34/3/5 33/3/5
f 37/3/5 35/3/5 34/3/5
f 37/3/5 36/3/5 35/3/5
f 38/3/5 36/3/5 37/3/5
f 39/3/6 40/3/6 41/3/6
f 41/3/6 40/3/6 42/3/6
