# MagicaVoxel @ Ephtracy

# group
o 

# material
mtllib officeman-0.mtl
usemtl palette

# normals
vn -1 0 0
vn 1 0 0
vn 0 0 1
vn 0 0 -1
vn 0 -1 0
vn 0 1 0

# texcoords
vt 0.0839844 0.5
vt 0.255859 0.5
vt 0.287109 0.5
vt 0.318359 0.5
vt 0.349609 0.5
vt 0.505859 0.5
vt 0.513672 0.5
vt 0.658203 0.5
vt 0.876953 0.5
vt 0.939453 0.5

# verts
v -1.7 -2.1 1
v -1.7 -2.1 -1.1
v -1.7 2.2 1
v -1.7 2.2 -1.1
v 1.7 -2.1 1
v 1.7 -2.1 -1.1
v 1.7 -1.9 1
v 1.7 -1.9 0.9
v 1.7 -1.4 1
v 1.7 -1.4 0.9
v 1.7 2.2 1
v 1.7 2.2 -1.1
v -1.7 -2.1 1
v -1.7 2.2 1
v -1.6 -1.9 1
v -1.6 -1.4 1
v -0.9 1.7 1
v -0.9 2.2 1
v -0.8 1.5 1
v -0.8 1.7 1
v -0.7 1.8 1
v -0.7 2.2 1
v -0.6 1.7 1
v -0.6 1.8 1
v -0.4 -1.9 1
v -0.4 -1.4 1
v -0.4 1.3 1
v -0.4 1.5 1
v -0.2 -0.2 1
v -0.2 1.3 1
v 0 -1.9 1
v 0 -1.4 1
v 0.2 -0.2 1
v 0.2 1.3 1
v 0.4 -1.9 1
v 0.4 -1.4 1
v 0.4 1.3 1
v 0.4 1.5 1
v 0.6 1.7 1
v 0.6 1.8 1
v 0.7 1.8 1
v 0.7 2.2 1
v 0.8 1.5 1
v 0.8 1.7 1
v 0.9 1.7 1
v 0.9 2.2 1
v 1.7 -2.1 1
v 1.7 -1.9 1
v 1.7 -1.4 1
v 1.7 2.2 1
v -1.7 -2.1 -1.1
v -1.7 2.2 -1.1
v 1.7 -2.1 -1.1
v 1.7 2.2 -1.1
v -1.7 -2.1 1
v 1.7 -2.1 1
v -1.7 -2.1 -1.1
v 1.7 -2.1 -1.1
v -1.7 2.2 1
v -0.9 2.2 1
v -0.7 2.2 1
v 0.7 2.2 1
v 0.9 2.2 1
v 1.7 2.2 1
v -0.9 2.2 0.9
v -0.7 2.2 0.9
v 0.7 2.2 0.9
v 0.9 2.2 0.9
v -1.7 2.2 -1.1
v 1.7 2.2 -1.1

# faces
f 3/1/1 2/1/1 1/1/1
f 4/1/1 2/1/1 3/1/1
f 5/1/2 6/1/2 7/1/2
f 7/1/2 6/1/2 8/1/2
f 7/4/2 8/4/2 9/4/2
f 8/1/2 6/1/2 10/1/2
f 9/4/2 8/4/2 10/4/2
f 9/1/2 10/1/2 11/1/2
f 10/1/2 6/1/2 12/1/2
f 11/1/2 10/1/2 12/1/2
f 15/1/3 14/1/3 13/1/3
f 16/1/3 14/1/3 15/1/3
f 17/1/3 14/1/3 16/1/3
f 18/1/3 14/1/3 17/1/3
f 19/1/3 17/1/3 16/1/3
f 20/3/3 18/3/3 17/3/3
f 20/1/3 17/1/3 19/1/3
f 21/3/3 20/3/3 19/3/3
f 21/3/3 18/3/3 20/3/3
f 22/3/3 18/3/3 21/3/3
f 23/3/3 21/3/3 19/3/3
f 24/2/3 22/2/3 21/2/3
f 24/3/3 21/3/3 23/3/3
f 25/1/3 15/1/3 13/1/3
f 25/4/3 16/4/3 15/4/3
f 26/1/3 19/1/3 16/1/3
f 26/4/3 16/4/3 25/4/3
f 27/1/3 19/1/3 26/1/3
f 28/3/3 23/3/3 19/3/3
f 28/1/3 19/1/3 27/1/3
f 29/1/3 27/1/3 26/1/3
f 30/3/3 28/3/3 27/3/3
f 30/1/3 27/1/3 29/1/3
f 31/1/3 25/1/3 13/1/3
f 31/6/3 26/6/3 25/6/3
f 32/1/3 29/1/3 26/1/3
f 32/6/3 26/6/3 31/6/3
f 33/8/3 30/8/3 29/8/3
f 33/1/3 29/1/3 32/1/3
f 34/3/3 28/3/3 30/3/3
f 34/8/3 30/8/3 33/8/3
f 35/7/3 32/7/3 31/7/3
f 35/1/3 31/1/3 13/1/3
f 36/1/3 33/1/3 32/1/3
f 36/7/3 32/7/3 35/7/3
f 36/1/3 34/1/3 33/1/3
f 37/3/3 28/3/3 34/3/3
f 37/1/3 34/1/3 36/1/3
f 38/3/3 23/3/3 28/3/3
f 38/3/3 28/3/3 37/3/3
f 39/2/3 24/2/3 23/2/3
f 39/3/3 23/3/3 38/3/3
f 40/2/3 22/2/3 24/2/3
f 40/2/3 24/2/3 39/2/3
f 41/3/3 40/3/3 39/3/3
f 41/2/3 22/2/3 40/2/3
f 42/2/3 22/2/3 41/2/3
f 43/3/3 39/3/3 38/3/3
f 43/1/3 38/1/3 37/1/3
f 43/3/3 42/3/3 41/3/3
f 43/3/3 41/3/3 39/3/3
f 43/1/3 37/1/3 36/1/3
f 44/3/3 42/3/3 43/3/3
f 45/1/3 44/1/3 43/1/3
f 45/3/3 42/3/3 44/3/3
f 46/3/3 42/3/3 45/3/3
f 47/1/3 35/1/3 13/1/3
f 48/4/3 36/4/3 35/4/3
f 48/1/3 35/1/3 47/1/3
f 49/1/3 43/1/3 36/1/3
f 49/4/3 36/4/3 48/4/3
f 49/1/3 45/1/3 43/1/3
f 49/1/3 46/1/3 45/1/3
f 50/1/3 46/1/3 49/1/3
f 51/1/4 52/1/4 53/1/4
f 53/1/4 52/1/4 54/1/4
f 57/1/5 56/1/5 55/1/5
f 58/1/5 56/1/5 57/1/5
f 59/1/6 60/1/6 65/1/6
f 60/3/6 61/3/6 65/3/6
f 61/2/6 62/2/6 66/2/6
f 65/3/6 61/3/6 66/3/6
f 62/3/6 63/3/6 67/3/6
f 66/2/6 62/2/6 67/2/6
f 63/1/6 64/1/6 68/1/6
f 67/3/6 63/3/6 68/3/6
f 66/1/6 67/1/6 69/1/6
f 65/1/6 66/1/6 69/1/6
f 67/1/6 68/1/6 69/1/6
f 59/1/6 65/1/6 69/1/6
f 68/1/6 64/1/6 70/1/6
f 69/1/6 68/1/6 70/1/6
