# MagicaVoxel @ Ephtracy

# group
o 

# material
mtllib noobGirl-5.mtl
usemtl palette

# normals
vn -1 0 0
vn 1 0 0
vn 0 0 1
vn 0 0 -1
vn 0 -1 0
vn 0 1 0

# texcoords
vt 0.365234 0.5
vt 0.458984 0.5
vt 0.587891 0.5

# verts
v -2.1 -0.4 4.8
v -2.1 -0.4 3.1
v -2.1 -0.4 2
v -2.1 -0.4 0.6
v -2.1 -0.4 -0.6
v -2.1 -0.4 -2
v -2.1 -0.4 -3.1
v -2.1 -0.4 -4.8
v -2.1 0.3 4.8
v -2.1 0.3 3.1
v -2.1 0.3 2
v -2.1 0.3 0.6
v -2.1 0.3 -0.6
v -2.1 0.3 -2
v -2.1 0.3 -3.1
v -2.1 0.3 -4.8
v -2.1 0.4 4.8
v -2.1 0.4 -4.8
v 2.2 -0.4 4.8
v 2.2 -0.4 -4.8
v 2.2 0.3 4.8
v 2.2 0.3 -4.8
v 2.2 0.4 4.8
v 2.2 0.4 -4.8
v -2.1 -0.4 4.8
v -2.1 0.3 4.8
v -2.1 0.4 4.8
v 2.2 -0.4 4.8
v 2.2 0.3 4.8
v 2.2 0.4 4.8
v -2.1 -0.4 -4.8
v -2.1 0.3 -4.8
v -2.1 0.4 -4.8
v 2.2 -0.4 -4.8
v 2.2 0.3 -4.8
v 2.2 0.4 -4.8
v -2.1 -0.4 4.8
v 2.2 -0.4 4.8
v -2 -0.4 4.7
v 2.1 -0.4 4.7
v -2.1 -0.4 3.1
v -2 -0.4 3.1
v -2.1 -0.4 2
v -2 -0.4 2
v -2.1 -0.4 0.6
v -2 -0.4 0.6
v -2.1 -0.4 -0.6
v -2 -0.4 -0.6
v -2.1 -0.4 -2
v -2 -0.4 -2
v -2.1 -0.4 -3.1
v -2 -0.4 -3.1
v -2 -0.4 -4.7
v 2.1 -0.4 -4.7
v -2.1 -0.4 -4.8
v 2.2 -0.4 -4.8
v -2.1 0.4 4.8
v 2.2 0.4 4.8
v -2.1 0.4 -4.8
v 2.2 0.4 -4.8

# faces
f 9/3/1 2/3/1 1/3/1
f 10/2/1 3/2/1 2/2/1
f 10/3/1 2/3/1 9/3/1
f 11/3/1 4/3/1 3/3/1
f 11/2/1 3/2/1 10/2/1
f 12/1/1 5/1/1 4/1/1
f 12/3/1 4/3/1 11/3/1
f 13/3/1 6/3/1 5/3/1
f 13/1/1 5/1/1 12/1/1
f 14/2/1 7/2/1 6/2/1
f 14/3/1 6/3/1 13/3/1
f 15/3/1 8/3/1 7/3/1
f 15/2/1 7/2/1 14/2/1
f 16/3/1 8/3/1 15/3/1
f 17/2/1 14/2/1 13/2/1
f 17/2/1 10/2/1 9/2/1
f 17/2/1 16/2/1 15/2/1
f 17/2/1 15/2/1 14/2/1
f 17/2/1 13/2/1 12/2/1
f 17/2/1 12/2/1 11/2/1
f 17/2/1 11/2/1 10/2/1
f 18/2/1 16/2/1 17/2/1
f 19/3/2 20/3/2 21/3/2
f 21/3/2 20/3/2 22/3/2
f 21/2/2 22/2/2 23/2/2
f 23/2/2 22/2/2 24/2/2
f 28/3/3 26/3/3 25/3/3
f 29/2/3 27/2/3 26/2/3
f 29/3/3 26/3/3 28/3/3
f 30/2/3 27/2/3 29/2/3
f 31/3/4 32/3/4 34/3/4
f 32/2/4 33/2/4 35/2/4
f 34/3/4 32/3/4 35/3/4
f 35/2/4 33/2/4 36/2/4
f 39/3/5 38/3/5 37/3/5
f 40/3/5 38/3/5 39/3/5
f 41/3/5 39/3/5 37/3/5
f 42/2/5 40/2/5 39/2/5
f 42/3/5 39/3/5 41/3/5
f 43/2/5 42/2/5 41/2/5
f 44/2/5 40/2/5 42/2/5
f 44/2/5 42/2/5 43/2/5
f 45/3/5 44/3/5 43/3/5
f 46/2/5 40/2/5 44/2/5
f 46/3/5 44/3/5 45/3/5
f 47/1/5 46/1/5 45/1/5
f 48/2/5 40/2/5 46/2/5
f 48/1/5 46/1/5 47/1/5
f 49/3/5 48/3/5 47/3/5
f 50/2/5 40/2/5 48/2/5
f 50/3/5 48/3/5 49/3/5
f 51/2/5 50/2/5 49/2/5
f 52/2/5 40/2/5 50/2/5
f 52/2/5 50/2/5 51/2/5
f 53/3/5 52/3/5 51/3/5
f 53/2/5 40/2/5 52/2/5
f 54/3/5 38/3/5 40/3/5
f 54/2/5 40/2/5 53/2/5
f 55/3/5 53/3/5 51/3/5
f 55/3/5 54/3/5 53/3/5
f 56/3/5 38/3/5 54/3/5
f 56/3/5 54/3/5 55/3/5
f 57/2/6 58/2/6 59/2/6
f 59/2/6 58/2/6 60/2/6
