# MagicaVoxel @ Ephtracy

# group
o 

# material
mtllib noobGirl-6.mtl
usemtl palette

# normals
vn -1 0 0
vn 1 0 0
vn 0 0 1
vn 0 0 -1
vn 0 -1 0
vn 0 1 0

# texcoords
vt 0.240234 0.5
vt 0.279297 0.5
vt 0.306641 0.5
vt 0.373047 0.5
vt 0.458984 0.5
vt 0.498047 0.5
vt 0.576172 0.5
vt 0.587891 0.5

# verts
v -5.5 -5.2 6.1
v -5.5 -5.2 -6.1
v -5.5 -4.7 1.4
v -5.5 -4.7 -1.4
v -5.5 -3.4 1.4
v -5.5 -3.4 -1.4
v -5.5 -2.4 -5.5
v -5.5 -2.4 -6.1
v -5.5 -2.3 -5.4
v -5.5 -2.3 -5.5
v -5.5 -1.7 3.1
v -5.5 -1.7 1
v -5.5 -1.7 -0.9
v -5.5 -1.7 -3.1
v -5.5 -1.6 4.5
v -5.5 -1.6 3.1
v -5.5 -1.6 -3.1
v -5.5 -1.6 -4.5
v -5.5 -0.3 -5
v -5.5 -0.3 -5.4
v -5.5 0 6.1
v -5.5 0 6
v -5.5 0.6 6
v -5.5 0.6 5.8
v -5.5 0.8 1.8
v -5.5 0.8 1.3
v -5.5 0.9 1
v -5.5 0.9 0.3
v -5.5 1 4.5
v -5.5 1 3.1
v -5.5 1 1.8
v -5.5 1 1.3
v -5.5 1 1
v -5.5 1 -1.5
v -5.5 1 -3.1
v -5.5 1 -4.5
v -5.5 1.1 4.8
v -5.5 1.1 4.5
v -5.5 1.1 4.1
v -5.5 1.1 -0.6
v -5.5 1.1 -0.9
v -5.5 1.1 -1.5
v -5.5 1.1 -1.9
v -5.5 1.3 2.8
v -5.5 1.3 1.8
v -5.5 1.5 5.3
v -5.5 1.5 4.8
v -5.5 1.5 4.1
v -5.5 1.5 2.8
v -5.5 1.5 -1.9
v -5.5 1.5 -3.6
v -5.5 1.5 -4.1
v -5.5 1.5 -4.5
v -5.5 1.7 5.8
v -5.5 1.7 5.3
v -5.5 1.8 -0.5
v -5.5 1.8 -0.6
v -5.5 1.9 4.1
v -5.5 1.9 2.8
v -5.5 1.9 -1.9
v -5.5 1.9 -2.4
v -5.5 1.9 -3.1
v -5.5 1.9 -3.6
v -5.5 1.9 -4.1
v -5.5 1.9 -4.5
v -5.5 2 -4.8
v -5.5 2 -5
v -5.5 2.2 3.8
v -5.5 2.2 3.2
v -5.5 2.3 -1.9
v -5.5 2.3 -2.4
v -5.5 2.4 -4.76837e-07
v -5.5 2.4 -0.5
v -5.5 2.4 -4.1
v -5.5 2.4 -4.8
v -5.5 2.5 4.1
v -5.5 2.5 3.8
v -5.5 2.7 3.2
v -5.5 2.7 2.8
v -5.5 2.8 -3.1
v -5.5 2.8 -3.6
v -5.5 2.9 0.3
v -5.5 2.9 -4.76837e-07
v -5.5 5.2 6.1
v -5.5 5.2 -6.1
v 5.5 -5.2 6.1
v 5.5 -5.2 2.9
v 5.5 -5.2 1.3
v 5.5 -5.2 -0.7
v 5.5 -5.2 -5.8
v 5.5 -5.2 -6.1
v 5.5 -5.1 4.7
v 5.5 -5.1 4.6
v 5.5 -4.9 6.1
v 5.5 -4.9 4.7
v 5.5 -4.7 -6
v 5.5 -4.7 -6.1
v 5.5 -4.4 4.6
v 5.5 -4.4 2.9
v 5.5 -4.4 1.3
v 5.5 -4.4 -0.7
v 5.5 -3.7 -5.8
v 5.5 -3.7 -6
v 5.5 5.2 6.1
v 5.5 5.2 -6.1
v -5.5 -5.2 6.1
v -5.5 0 6.1
v -5.5 5.2 6.1
v -4 0 6.1
v -4 1.4 6.1
v -2.8 -0.5 6.1
v -2.8 1.4 6.1
v -2 -1.1 6.1
v -2 -0.5 6.1
v -0.9 -2 6.1
v -0.9 -1.1 6.1
v -0.2 -2.6 6.1
v -0.2 -2 6.1
v 0.4 -4.7 6.1
v 0.4 -2.6 6.1
v 0.6 -5.2 6.1
v 0.6 -4.7 6.1
v 5.4 -5.2 6.1
v 5.4 -4.9 6.1
v 5.5 -5.2 6.1
v 5.5 -4.9 6.1
v 5.5 5.2 6.1
v -5.5 -5.2 -6.1
v -5.5 -2.4 -6.1
v -5.5 5.2 -6.1
v -4.2 -2.4 -6.1
v -4.2 -1.6 -6.1
v -2.4 -1.6 -6.1
v -2.4 -1.1 -6.1
v -1.1 -1.2 -6.1
v -1.1 -1.1 -6.1
v 0 -1.4 -6.1
v 0 -1.2 -6.1
v 0.9 -1.6 -6.1
v 0.9 -1.4 -6.1
v 1.4 -2.6 -6.1
v 1.4 -1.6 -6.1
v 2.2 -4 -6.1
v 2.2 -2.6 -6.1
v 2.5 -4.8 -6.1
v 2.5 -4 -6.1
v 2.6 -4.9 -6.1
v 2.6 -4.8 -6.1
v 2.7 -4.9 -6.1
v 2.7 -4.8 -6.1
v 3.3 -4.8 -6.1
v 3.3 -4.4 -6.1
v 4 -4.4 -6.1
v 4 -4 -6.1
v 4.8 -4.7 -6.1
v 4.8 -4 -6.1
v 5.5 -5.2 -6.1
v 5.5 -4.7 -6.1
v 5.5 5.2 -6.1
v -5.5 -5.2 6.1
v 0.6 -5.2 6.1
v 5.4 -5.2 6.1
v 5.5 -5.2 6.1
v 0.6 -5.2 6
v 5.4 -5.2 6
v 5.4 -5.2 2.9
v 5.5 -5.2 2.9
v 5.4 -5.2 1.3
v 5.5 -5.2 1.3
v 5.4 -5.2 -0.7
v 5.5 -5.2 -0.7
v 5.4 -5.2 -5.8
v 5.5 -5.2 -5.8
v -5.5 -5.2 -6.1
v 5.5 -5.2 -6.1
v -5.5 5.2 6.1
v 5.5 5.2 6.1
v -5.5 5.2 -6.1
v 5.5 5.2 -6.1

# faces
f 3/4/1 2/4/1 1/4/1
f 4/4/1 2/4/1 3/4/1
f 5/4/1 3/4/1 1/4/1
f 5/7/1 4/7/1 3/7/1
f 6/4/1 2/4/1 4/4/1
f 6/7/1 4/7/1 5/7/1
f 7/4/1 6/4/1 5/4/1
f 7/4/1 2/4/1 6/4/1
f 8/4/1 2/4/1 7/4/1
f 9/4/1 7/4/1 5/4/1
f 10/3/1 8/3/1 7/3/1
f 10/4/1 7/4/1 9/4/1
f 11/4/1 5/4/1 1/4/1
f 11/4/1 9/4/1 5/4/1
f 12/4/1 9/4/1 11/4/1
f 13/4/1 9/4/1 12/4/1
f 14/4/1 9/4/1 13/4/1
f 15/4/1 11/4/1 1/4/1
f 16/5/1 12/5/1 11/5/1
f 16/4/1 11/4/1 15/4/1
f 17/4/1 9/4/1 14/4/1
f 17/5/1 14/5/1 13/5/1
f 18/4/1 9/4/1 17/4/1
f 19/4/1 9/4/1 18/4/1
f 20/3/1 10/3/1 9/3/1
f 20/4/1 9/4/1 19/4/1
f 21/4/1 15/4/1 1/4/1
f 22/4/1 15/4/1 21/4/1
f 23/3/1 22/3/1 21/3/1
f 23/4/1 15/4/1 22/4/1
f 24/4/1 15/4/1 23/4/1
f 25/5/1 12/5/1 16/5/1
f 26/5/1 12/5/1 25/5/1
f 27/4/1 13/4/1 12/4/1
f 27/5/1 12/5/1 26/5/1
f 28/4/1 13/4/1 27/4/1
f 29/4/1 15/4/1 24/4/1
f 29/6/1 16/6/1 15/6/1
f 30/5/1 25/5/1 16/5/1
f 30/6/1 16/6/1 29/6/1
f 31/3/1 26/3/1 25/3/1
f 31/5/1 25/5/1 30/5/1
f 32/5/1 27/5/1 26/5/1
f 32/3/1 26/3/1 31/3/1
f 33/3/1 28/3/1 27/3/1
f 33/5/1 27/5/1 32/5/1
f 34/5/1 17/5/1 13/5/1
f 35/6/1 18/6/1 17/6/1
f 35/5/1 17/5/1 34/5/1
f 36/4/1 19/4/1 18/4/1
f 36/6/1 18/6/1 35/6/1
f 37/4/1 29/4/1 24/4/1
f 38/8/1 30/8/1 29/8/1
f 38/4/1 29/4/1 37/4/1
f 38/8/1 31/8/1 30/8/1
f 39/8/1 31/8/1 38/8/1
f 40/4/1 13/4/1 28/4/1
f 41/5/1 34/5/1 13/5/1
f 41/4/1 13/4/1 40/4/1
f 42/8/1 35/8/1 34/8/1
f 42/5/1 34/5/1 41/5/1
f 42/8/1 36/8/1 35/8/1
f 43/8/1 36/8/1 42/8/1
f 44/8/1 31/8/1 39/8/1
f 45/3/1 32/3/1 31/3/1
f 45/8/1 31/8/1 44/8/1
f 45/3/1 33/3/1 32/3/1
f 46/4/1 37/4/1 24/4/1
f 47/3/1 39/3/1 38/3/1
f 47/4/1 37/4/1 46/4/1
f 47/3/1 38/3/1 37/3/1
f 48/8/1 44/8/1 39/8/1
f 48/3/1 39/3/1 47/3/1
f 49/3/1 45/3/1 44/3/1
f 49/8/1 44/8/1 48/8/1
f 50/3/1 41/3/1 40/3/1
f 50/8/1 36/8/1 43/8/1
f 50/3/1 43/3/1 42/3/1
f 50/3/1 42/3/1 41/3/1
f 51/8/1 36/8/1 50/8/1
f 52/8/1 36/8/1 51/8/1
f 53/4/1 19/4/1 36/4/1
f 53/8/1 36/8/1 52/8/1
f 54/3/1 24/3/1 23/3/1
f 54/4/1 46/4/1 24/4/1
f 55/3/1 47/3/1 46/3/1
f 55/4/1 46/4/1 54/4/1
f 55/3/1 48/3/1 47/3/1
f 56/4/1 40/4/1 28/4/1
f 57/3/1 50/3/1 40/3/1
f 57/4/1 40/4/1 56/4/1
f 58/2/1 49/2/1 48/2/1
f 58/3/1 48/3/1 55/3/1
f 58/3/1 55/3/1 54/3/1
f 59/3/1 45/3/1 49/3/1
f 59/2/1 49/2/1 58/2/1
f 60/3/1 50/3/1 57/3/1
f 60/3/1 57/3/1 56/3/1
f 60/2/1 51/2/1 50/2/1
f 61/2/1 51/2/1 60/2/1
f 62/2/1 51/2/1 61/2/1
f 63/3/1 52/3/1 51/3/1
f 63/2/1 51/2/1 62/2/1
f 64/2/1 53/2/1 52/2/1
f 64/3/1 52/3/1 63/3/1
f 65/4/1 19/4/1 53/4/1
f 65/2/1 53/2/1 64/2/1
f 66/4/1 65/4/1 64/4/1
f 66/4/1 19/4/1 65/4/1
f 67/3/1 20/3/1 19/3/1
f 67/4/1 19/4/1 66/4/1
f 68/4/1 59/4/1 58/4/1
f 69/4/1 59/4/1 68/4/1
f 70/3/1 60/3/1 56/3/1
f 70/4/1 61/4/1 60/4/1
f 71/3/1 62/3/1 61/3/1
f 71/4/1 61/4/1 70/4/1
f 72/4/1 56/4/1 28/4/1
f 73/3/1 70/3/1 56/3/1
f 73/4/1 56/4/1 72/4/1
f 73/3/1 71/3/1 70/3/1
f 74/4/1 66/4/1 64/4/1
f 74/3/1 64/3/1 63/3/1
f 75/3/1 67/3/1 66/3/1
f 75/4/1 66/4/1 74/4/1
f 76/3/1 58/3/1 54/3/1
f 76/4/1 68/4/1 58/4/1
f 77/3/1 69/3/1 68/3/1
f 77/4/1 68/4/1 76/4/1
f 78/4/1 59/4/1 69/4/1
f 78/3/1 69/3/1 77/3/1
f 78/3/1 77/3/1 76/3/1
f 79/3/1 45/3/1 59/3/1
f 79/4/1 59/4/1 78/4/1
f 80/3/1 71/3/1 73/3/1
f 80/3/1 73/3/1 72/3/1
f 80/4/1 63/4/1 62/4/1
f 80/3/1 62/3/1 71/3/1
f 81/3/1 74/3/1 63/3/1
f 81/4/1 63/4/1 80/4/1
f 81/3/1 75/3/1 74/3/1
f 82/3/1 33/3/1 45/3/1
f 82/3/1 28/3/1 33/3/1
f 82/3/1 45/3/1 79/3/1
f 82/3/1 79/3/1 78/3/1
f 82/4/1 72/4/1 28/4/1
f 83/3/1 81/3/1 80/3/1
f 83/4/1 72/4/1 82/4/1
f 83/3/1 80/3/1 72/3/1
f 84/3/1 78/3/1 76/3/1
f 84/3/1 54/3/1 23/3/1
f 84/3/1 83/3/1 82/3/1
f 84/3/1 23/3/1 21/3/1
f 84/3/1 82/3/1 78/3/1
f 84/3/1 76/3/1 54/3/1
f 85/3/1 8/3/1 10/3/1
f 85/3/1 83/3/1 84/3/1
f 85/3/1 67/3/1 75/3/1
f 85/3/1 20/3/1 67/3/1
f 85/3/1 81/3/1 83/3/1
f 85/3/1 75/3/1 81/3/1
f 85/3/1 10/3/1 20/3/1
f 86/4/2 87/4/2 92/4/2
f 92/4/2 87/4/2 93/4/2
f 86/4/2 92/4/2 94/4/2
f 92/3/2 93/3/2 95/3/2
f 94/4/2 92/4/2 95/4/2
f 90/4/2 91/4/2 96/4/2
f 96/4/2 91/4/2 97/4/2
f 95/3/2 93/3/2 98/3/2
f 93/4/2 87/4/2 98/4/2
f 94/3/2 95/3/2 98/3/2
f 87/3/2 88/3/2 99/3/2
f 98/4/2 87/4/2 99/4/2
f 88/4/2 89/4/2 100/4/2
f 99/3/2 88/3/2 100/3/2
f 89/3/2 90/3/2 101/3/2
f 100/4/2 89/4/2 101/4/2
f 98/3/2 99/3/2 102/3/2
f 101/3/2 90/3/2 102/3/2
f 100/3/2 101/3/2 102/3/2
f 90/4/2 96/4/2 102/4/2
f 99/3/2 100/3/2 102/3/2
f 96/3/2 97/3/2 103/3/2
f 102/4/2 96/4/2 103/4/2
f 94/3/2 98/3/2 104/3/2
f 98/3/2 102/3/2 104/3/2
f 102/3/2 103/3/2 104/3/2
f 103/3/2 97/3/2 105/3/2
f 104/3/2 103/3/2 105/3/2
f 109/4/3 107/4/3 106/4/3
f 109/3/3 108/3/3 107/3/3
f 110/3/3 108/3/3 109/3/3
f 111/4/3 109/4/3 106/4/3
f 111/4/3 110/4/3 109/4/3
f 112/3/3 108/3/3 110/3/3
f 112/4/3 110/4/3 111/4/3
f 113/4/3 111/4/3 106/4/3
f 114/3/3 112/3/3 111/3/3
f 114/4/3 111/4/3 113/4/3
f 115/4/3 113/4/3 106/4/3
f 116/3/3 114/3/3 113/3/3
f 116/4/3 113/4/3 115/4/3
f 117/4/3 115/4/3 106/4/3
f 118/3/3 116/3/3 115/3/3
f 118/4/3 115/4/3 117/4/3
f 119/4/3 117/4/3 106/4/3
f 120/3/3 118/3/3 117/3/3
f 120/4/3 117/4/3 119/4/3
f 121/4/3 119/4/3 106/4/3
f 122/3/3 120/3/3 119/3/3
f 122/4/3 119/4/3 121/4/3
f 123/3/3 122/3/3 121/3/3
f 124/3/3 122/3/3 123/3/3
f 125/4/3 124/4/3 123/4/3
f 126/3/3 122/3/3 124/3/3
f 126/4/3 124/4/3 125/4/3
f 127/3/3 108/3/3 112/3/3
f 127/3/3 122/3/3 126/3/3
f 127/3/3 112/3/3 114/3/3
f 127/3/3 114/3/3 116/3/3
f 127/3/3 116/3/3 118/3/3
f 127/3/3 120/3/3 122/3/3
f 127/3/3 118/3/3 120/3/3
f 128/4/4 129/4/4 131/4/4
f 129/3/4 130/3/4 131/3/4
f 131/3/4 130/3/4 132/3/4
f 131/4/4 132/4/4 133/4/4
f 132/3/4 130/3/4 133/3/4
f 133/3/4 130/3/4 134/3/4
f 133/4/4 134/4/4 135/4/4
f 134/3/4 130/3/4 136/3/4
f 135/4/4 134/4/4 136/4/4
f 133/4/4 135/4/4 137/4/4
f 135/3/4 136/3/4 138/3/4
f 137/4/4 135/4/4 138/4/4
f 131/4/4 133/4/4 139/4/4
f 133/4/4 137/4/4 139/4/4
f 137/3/4 138/3/4 140/3/4
f 139/4/4 137/4/4 140/4/4
f 128/4/4 131/4/4 141/4/4
f 131/4/4 139/4/4 141/4/4
f 139/3/4 140/3/4 142/3/4
f 141/4/4 139/4/4 142/4/4
f 128/4/4 141/4/4 143/4/4
f 141/3/4 142/3/4 144/3/4
f 143/4/4 141/4/4 144/4/4
f 128/4/4 143/4/4 145/4/4
f 143/3/4 144/3/4 146/3/4
f 145/4/4 143/4/4 146/4/4
f 128/4/4 145/4/4 147/4/4
f 145/3/4 146/3/4 148/3/4
f 147/4/4 145/4/4 148/4/4
f 128/4/4 147/4/4 149/4/4
f 147/3/4 148/3/4 149/3/4
f 148/3/4 146/3/4 150/3/4
f 149/3/4 148/3/4 150/3/4
f 149/4/4 150/4/4 151/4/4
f 150/3/4 146/3/4 151/3/4
f 151/3/4 146/3/4 152/3/4
f 151/4/4 152/4/4 153/4/4
f 152/3/4 146/3/4 153/3/4
f 146/3/4 144/3/4 154/3/4
f 153/3/4 146/3/4 154/3/4
f 151/4/4 153/4/4 155/4/4
f 153/4/4 154/4/4 155/4/4
f 154/3/4 144/3/4 156/3/4
f 155/4/4 154/4/4 156/4/4
f 151/4/4 155/4/4 157/4/4
f 128/4/4 149/4/4 157/4/4
f 149/4/4 151/4/4 157/4/4
f 155/3/4 156/3/4 158/3/4
f 157/4/4 155/4/4 158/4/4
f 140/3/4 138/3/4 159/3/4
f 158/3/4 156/3/4 159/3/4
f 138/3/4 136/3/4 159/3/4
f 136/3/4 130/3/4 159/3/4
f 156/3/4 144/3/4 159/3/4
f 144/3/4 142/3/4 159/3/4
f 142/3/4 140/3/4 159/3/4
f 164/4/5 161/4/5 160/4/5
f 164/3/5 162/3/5 161/3/5
f 165/4/5 163/4/5 162/4/5
f 165/3/5 162/3/5 164/3/5
f 166/4/5 165/4/5 164/4/5
f 166/4/5 163/4/5 165/4/5
f 167/4/5 163/4/5 166/4/5
f 168/4/5 166/4/5 164/4/5
f 168/3/5 167/3/5 166/3/5
f 169/3/5 167/3/5 168/3/5
f 170/4/5 168/4/5 164/4/5
f 170/4/5 169/4/5 168/4/5
f 171/4/5 169/4/5 170/4/5
f 172/4/5 170/4/5 164/4/5
f 172/3/5 171/3/5 170/3/5
f 173/3/5 171/3/5 172/3/5
f 174/4/5 164/4/5 160/4/5
f 174/4/5 172/4/5 164/4/5
f 174/4/5 173/4/5 172/4/5
f 175/4/5 173/4/5 174/4/5
f 176/3/6 177/3/6 178/3/6
f 178/3/6 177/3/6 179/3/6
