# MagicaVoxel @ Ephtracy

# group
o 

# material
mtllib enderman-0.mtl
usemtl palette

# normals
vn -1 0 0
vn 1 0 0
vn 0 0 1
vn 0 0 -1
vn 0 -1 0
vn 0 1 0

# texcoords
vt 0.0527344 0.5
vt 0.185547 0.5
vt 0.373047 0.5
vt 0.400391 0.5
vt 0.419922 0.5
vt 0.462891 0.5
vt 0.876953 0.5
vt 0.939453 0.5

# verts
v -1.7 -3.5 1
v -1.7 -3.5 -1.1
v -1.7 3.5 1
v -1.7 3.5 -1.1
v 1 0.8 0
v 1 0.8 -0.1
v 1 3.4 0
v 1 3.4 -0.1
v 1 3.5 0
v 1 3.5 -0.1
v 0.9 0.8 0
v 0.9 0.8 -0.1
v 0.9 3.4 0
v 0.9 3.4 -0.1
v 0.9 3.5 0
v 0.9 3.5 -0.1
v 1.7 -3.5 1
v 1.7 -3.5 -1.1
v 1.7 3.5 1
v 1.7 3.5 -1.1
v -1.7 -3.5 1
v -1.7 3.5 1
v 1.7 -3.5 1
v 1.7 3.5 1
v 0.9 0.8 -0.1
v 0.9 3.4 -0.1
v 0.9 3.5 -0.1
v 1 0.8 -0.1
v 1 3.4 -0.1
v 1 3.5 -0.1
v 0.9 0.8 0
v 0.9 3.4 0
v 0.9 3.5 0
v 1 0.8 0
v 1 3.4 0
v 1 3.5 0
v -1.7 -3.5 -1.1
v -1.7 3.5 -1.1
v 1.7 -3.5 -1.1
v 1.7 3.5 -1.1
v -1.7 -3.5 1
v 1.7 -3.5 1
v -1.7 -3.5 -1.1
v 1.7 -3.5 -1.1
v 0.9 0.8 0
v 1 0.8 0
v 0.9 0.8 -0.1
v 1 0.8 -0.1
v -1.7 3.5 1
v 1.7 3.5 1
v 0.9 3.5 0
v 1 3.5 0
v 0.9 3.5 -0.1
v 1 3.5 -0.1
v -1.7 3.5 -1.1
v 1.7 3.5 -1.1

# faces
f 3/4/1 2/4/1 1/4/1
f 4/4/1 2/4/1 3/4/1
f 7/6/1 6/6/1 5/6/1
f 8/6/1 6/6/1 7/6/1
f 9/4/1 8/4/1 7/4/1
f 10/4/1 8/4/1 9/4/1
f 11/6/2 12/6/2 13/6/2
f 13/6/2 12/6/2 14/6/2
f 13/4/2 14/4/2 15/4/2
f 15/4/2 14/4/2 16/4/2
f 17/4/2 18/4/2 19/4/2
f 19/4/2 18/4/2 20/4/2
f 23/4/3 22/4/3 21/4/3
f 24/4/3 22/4/3 23/4/3
f 28/6/3 26/6/3 25/6/3
f 29/4/3 27/4/3 26/4/3
f 29/6/3 26/6/3 28/6/3
f 30/4/3 27/4/3 29/4/3
f 31/6/4 32/6/4 34/6/4
f 32/4/4 33/4/4 35/4/4
f 34/6/4 32/6/4 35/6/4
f 35/4/4 33/4/4 36/4/4
f 37/4/4 38/4/4 39/4/4
f 39/4/4 38/4/4 40/4/4
f 43/4/5 42/4/5 41/4/5
f 44/4/5 42/4/5 43/4/5
f 45/6/6 46/6/6 47/6/6
f 47/6/6 46/6/6 48/6/6
f 49/4/6 50/4/6 51/4/6
f 51/4/6 50/4/6 52/4/6
f 49/4/6 51/4/6 53/4/6
f 52/4/6 50/4/6 54/4/6
f 49/4/6 53/4/6 55/4/6
f 53/4/6 54/4/6 55/4/6
f 54/4/6 50/4/6 56/4/6
f 55/4/6 54/4/6 56/4/6
