# MagicaVoxel @ Ephtracy

# group
o 

# material
mtllib evilnoob-5.mtl
usemtl palette

# normals
vn -1 0 0
vn 1 0 0
vn 0 0 1
vn 0 0 -1
vn 0 -1 0
vn 0 1 0

# texcoords
vt 0.365234 0.5
vt 0.458984 0.5
vt 0.498047 0.5
vt 0.587891 0.5

# verts
v -2.1 -0.4 4.8
v -2.1 -0.4 3.1
v -2.1 -0.4 2
v -2.1 -0.4 0.6
v -2.1 -0.4 -0.6
v -2.1 -0.4 -2
v -2.1 -0.4 -3.1
v -2.1 -0.4 -4.8
v -2.1 0.3 4.8
v -2.1 0.3 3.1
v -2.1 0.3 2
v -2.1 0.3 0.6
v -2.1 0.3 -0.6
v -2.1 0.3 -2
v -2.1 0.3 -3.1
v -2.1 0.3 -4.8
v -2.1 0.4 4.8
v -2.1 0.4 -4.8
v 2.2 -0.4 4.8
v 2.2 -0.4 -4.8
v 2.2 0.3 4.8
v 2.2 0.3 -4.8
v 2.2 0.4 4.8
v 2.2 0.4 -4.8
v -2.1 -0.4 4.8
v -2.1 0.3 4.8
v -2.1 0.4 4.8
v 2.2 -0.4 4.8
v 2.2 0.3 4.8
v 2.2 0.4 4.8
v -2.1 -0.4 -4.8
v -2.1 0.3 -4.8
v -2.1 0.4 -4.8
v 2.2 -0.4 -4.8
v 2.2 0.3 -4.8
v 2.2 0.4 -4.8
v -2.1 -0.4 4.8
v 2.2 -0.4 4.8
v -2 -0.4 4.7
v 2.1 -0.4 4.7
v -2.1 -0.4 3.1
v -2 -0.4 3.1
v -2.1 -0.4 2
v -2 -0.4 2
v -2.1 -0.4 0.6
v -2 -0.4 0.6
v -2.1 -0.4 -0.6
v -2 -0.4 -0.6
v -2.1 -0.4 -2
v -2 -0.4 -2
v -2.1 -0.4 -3.1
v -2 -0.4 -3.1
v -2 -0.4 -4.7
v 2.1 -0.4 -4.7
v -2.1 -0.4 -4.8
v 2.2 -0.4 -4.8
v -2.1 0.4 4.8
v 2.2 0.4 4.8
v -2.1 0.4 -4.8
v 2.2 0.4 -4.8

# faces
f 9/4/1 2/4/1 1/4/1
f 10/3/1 3/3/1 2/3/1
f 10/4/1 2/4/1 9/4/1
f 11/4/1 4/4/1 3/4/1
f 11/3/1 3/3/1 10/3/1
f 12/1/1 5/1/1 4/1/1
f 12/4/1 4/4/1 11/4/1
f 13/4/1 6/4/1 5/4/1
f 13/1/1 5/1/1 12/1/1
f 14/3/1 7/3/1 6/3/1
f 14/4/1 6/4/1 13/4/1
f 15/4/1 8/4/1 7/4/1
f 15/3/1 7/3/1 14/3/1
f 16/4/1 8/4/1 15/4/1
f 17/3/1 14/3/1 13/3/1
f 17/3/1 10/3/1 9/3/1
f 17/3/1 16/3/1 15/3/1
f 17/3/1 15/3/1 14/3/1
f 17/3/1 13/3/1 12/3/1
f 17/3/1 12/3/1 11/3/1
f 17/3/1 11/3/1 10/3/1
f 18/3/1 16/3/1 17/3/1
f 19/4/2 20/4/2 21/4/2
f 21/4/2 20/4/2 22/4/2
f 21/3/2 22/3/2 23/3/2
f 23/3/2 22/3/2 24/3/2
f 28/4/3 26/4/3 25/4/3
f 29/3/3 27/3/3 26/3/3
f 29/4/3 26/4/3 28/4/3
f 30/3/3 27/3/3 29/3/3
f 31/4/4 32/4/4 34/4/4
f 32/3/4 33/3/4 35/3/4
f 34/4/4 32/4/4 35/4/4
f 35/3/4 33/3/4 36/3/4
f 39/4/5 38/4/5 37/4/5
f 40/4/5 38/4/5 39/4/5
f 41/4/5 39/4/5 37/4/5
f 42/3/5 40/3/5 39/3/5
f 42/4/5 39/4/5 41/4/5
f 43/3/5 42/3/5 41/3/5
f 44/3/5 40/3/5 42/3/5
f 44/3/5 42/3/5 43/3/5
f 45/4/5 44/4/5 43/4/5
f 46/3/5 40/3/5 44/3/5
f 46/4/5 44/4/5 45/4/5
f 47/1/5 46/1/5 45/1/5
f 48/3/5 40/3/5 46/3/5
f 48/1/5 46/1/5 47/1/5
f 49/4/5 48/4/5 47/4/5
f 50/3/5 40/3/5 48/3/5
f 50/4/5 48/4/5 49/4/5
f 51/3/5 50/3/5 49/3/5
f 52/3/5 40/3/5 50/3/5
f 52/3/5 50/3/5 51/3/5
f 53/4/5 52/4/5 51/4/5
f 53/3/5 40/3/5 52/3/5
f 54/4/5 38/4/5 40/4/5
f 54/3/5 40/3/5 53/3/5
f 55/4/5 53/4/5 51/4/5
f 55/4/5 54/4/5 53/4/5
f 56/4/5 38/4/5 54/4/5
f 56/4/5 54/4/5 55/4/5
f 57/3/6 58/3/6 59/3/6
f 59/3/6 58/3/6 60/3/6
