# MagicaVoxel @ Ephtracy

# group
o 

# material
mtllib bossgolem-0.mtl
usemtl palette

# normals
vn -1 0 0
vn 1 0 0
vn 0 0 1
vn 0 0 -1
vn 0 -1 0
vn 0 1 0

# texcoords
vt 0.0917969 0.5
vt 0.462891 0.5
vt 0.482422 0.5
vt 0.583984 0.5

# verts
v -1.5 -5 1.5
v -1.5 -5 -1.5
v -1.5 -4.1 1.5
v -1.5 -4.1 -1.5
v -1.5 -3.5 1.5
v -1.5 -3.5 -1.5
v -1.5 5 1.5
v -1.5 5 -1.5
v 1.5 -5 1.5
v 1.5 -5 -1.5
v 1.5 -4.1 1.5
v 1.5 -4.1 -1.5
v 1.5 -3.5 1.5
v 1.5 -3.5 -1.5
v 1.5 5 1.5
v 1.5 5 -1.5
v -1.5 -5 1.5
v -1.5 -4.1 1.5
v -1.5 -3.5 1.5
v -1.5 5 1.5
v 1.5 -5 1.5
v 1.5 -4.1 1.5
v 1.5 -3.5 1.5
v 1.5 5 1.5
v -1.5 -5 -1.5
v -1.5 -4.1 -1.5
v -1.5 -3.5 -1.5
v -1.5 5 -1.5
v 1.5 -5 -1.5
v 1.5 -4.1 -1.5
v 1.5 -3.5 -1.5
v 1.5 5 -1.5
v -1.5 -5 1.5
v 1.5 -5 1.5
v -1.4 -5 1.4
v 1.4 -5 1.4
v -1.4 -5 -1.4
v 1.4 -5 -1.4
v -1.5 -5 -1.5
v 1.5 -5 -1.5
v -1.5 5 1.5
v 1.5 5 1.5
v -1.5 5 -1.5
v 1.5 5 -1.5

# faces
f 3/2/1 2/2/1 1/2/1
f 4/2/1 2/2/1 3/2/1
f 5/3/1 4/3/1 3/3/1
f 6/3/1 4/3/1 5/3/1
f 7/4/1 6/4/1 5/4/1
f 8/4/1 6/4/1 7/4/1
f 9/2/2 10/2/2 11/2/2
f 11/2/2 10/2/2 12/2/2
f 11/3/2 12/3/2 13/3/2
f 13/3/2 12/3/2 14/3/2
f 13/4/2 14/4/2 15/4/2
f 15/4/2 14/4/2 16/4/2
f 21/2/3 18/2/3 17/2/3
f 22/3/3 19/3/3 18/3/3
f 22/2/3 18/2/3 21/2/3
f 23/4/3 20/4/3 19/4/3
f 23/3/3 19/3/3 22/3/3
f 24/4/3 20/4/3 23/4/3
f 25/2/4 26/2/4 29/2/4
f 26/3/4 27/3/4 30/3/4
f 29/2/4 26/2/4 30/2/4
f 27/4/4 28/4/4 31/4/4
f 30/3/4 27/3/4 31/3/4
f 31/4/4 28/4/4 32/4/4
f 35/2/5 34/2/5 33/2/5
f 36/2/5 34/2/5 35/2/5
f 37/2/5 35/2/5 33/2/5
f 37/4/5 36/4/5 35/4/5
f 38/2/5 34/2/5 36/2/5
f 38/4/5 36/4/5 37/4/5
f 39/2/5 37/2/5 33/2/5
f 39/2/5 38/2/5 37/2/5
f 40/2/5 34/2/5 38/2/5
f 40/2/5 38/2/5 39/2/5
f 41/4/6 42/4/6 43/4/6
f 43/4/6 42/4/6 44/4/6
