# MagicaVoxel @ Ephtracy

# group
o 

# material
mtllib bossgolem-3.mtl
usemtl palette

# normals
vn -1 0 0
vn 1 0 0
vn 0 0 1
vn 0 0 -1
vn 0 -1 0
vn 0 1 0

# texcoords
vt 0.0527344 0.5
vt 0.185547 0.5
vt 0.373047 0.5
vt 0.400391 0.5
vt 0.419922 0.5
vt 0.462891 0.5
vt 0.583984 0.5
vt 0.876953 0.5
vt 0.939453 0.5

# verts
v -5 -3.5 2.5
v -5 -3.5 -2.5
v -5 3.5 2.5
v -5 3.5 -2.5
v 1 0.8 -2.38419e-07
v 1 0.8 -0.1
v 1 3.3 -2.38419e-07
v 1 3.3 -0.1
v 1 3.5 -2.38419e-07
v 1 3.5 -0.1
v 0.9 0.8 -2.38419e-07
v 0.9 0.8 -0.1
v 0.9 3.3 -2.38419e-07
v 0.9 3.3 -0.1
v 0.9 3.5 -2.38419e-07
v 0.9 3.5 -0.1
v 5 -3.5 2.5
v 5 -3.5 -2.5
v 5 3.5 2.5
v 5 3.5 -2.5
v -5 -3.5 2.5
v -5 3.5 2.5
v 5 -3.5 2.5
v 5 3.5 2.5
v 0.9 0.8 -0.1
v 0.9 3.3 -0.1
v 0.9 3.5 -0.1
v 1 0.8 -0.1
v 1 3.3 -0.1
v 1 3.5 -0.1
v 0.9 0.8 -2.38419e-07
v 0.9 3.3 -2.38419e-07
v 0.9 3.5 -2.38419e-07
v 1 0.8 -2.38419e-07
v 1 3.3 -2.38419e-07
v 1 3.5 -2.38419e-07
v -5 -3.5 -2.5
v -5 3.5 -2.5
v 5 -3.5 -2.5
v 5 3.5 -2.5
v -5 -3.5 2.5
v 5 -3.5 2.5
v -5 -3.5 -2.5
v 5 -3.5 -2.5
v 0.9 0.8 -2.38419e-07
v 1 0.8 -2.38419e-07
v 0.9 0.8 -0.1
v 1 0.8 -0.1
v -5 3.5 2.5
v 5 3.5 2.5
v 0.9 3.5 -2.38419e-07
v 1 3.5 -2.38419e-07
v 0.9 3.5 -0.1
v 1 3.5 -0.1
v -5 3.5 -2.5
v 5 3.5 -2.5

# faces
f 3/7/1 2/7/1 1/7/1
f 4/7/1 2/7/1 3/7/1
f 7/6/1 6/6/1 5/6/1
f 8/6/1 6/6/1 7/6/1
f 9/7/1 8/7/1 7/7/1
f 10/7/1 8/7/1 9/7/1
f 11/6/2 12/6/2 13/6/2
f 13/6/2 12/6/2 14/6/2
f 13/7/2 14/7/2 15/7/2
f 15/7/2 14/7/2 16/7/2
f 17/7/2 18/7/2 19/7/2
f 19/7/2 18/7/2 20/7/2
f 23/7/3 22/7/3 21/7/3
f 24/7/3 22/7/3 23/7/3
f 28/6/3 26/6/3 25/6/3
f 29/7/3 27/7/3 26/7/3
f 29/6/3 26/6/3 28/6/3
f 30/7/3 27/7/3 29/7/3
f 31/6/4 32/6/4 34/6/4
f 32/7/4 33/7/4 35/7/4
f 34/6/4 32/6/4 35/6/4
f 35/7/4 33/7/4 36/7/4
f 37/7/4 38/7/4 39/7/4
f 39/7/4 38/7/4 40/7/4
f 43/7/5 42/7/5 41/7/5
f 44/7/5 42/7/5 43/7/5
f 45/6/6 46/6/6 47/6/6
f 47/6/6 46/6/6 48/6/6
f 49/7/6 50/7/6 51/7/6
f 51/7/6 50/7/6 52/7/6
f 49/7/6 51/7/6 53/7/6
f 52/7/6 50/7/6 54/7/6
f 49/7/6 53/7/6 55/7/6
f 53/7/6 54/7/6 55/7/6
f 54/7/6 50/7/6 56/7/6
f 55/7/6 54/7/6 56/7/6
