# MagicaVoxel @ Ephtracy

# group
o 

# material
mtllib bossgolem-2.mtl
usemtl palette

# normals
vn -1 0 0
vn 1 0 0
vn 0 0 1
vn 0 0 -1
vn 0 -1 0
vn 0 1 0

# texcoords
vt 0.0917969 0.5
vt 0.552734 0.5
vt 0.583984 0.5
vt 0.587891 0.5

# verts
v -7.5 -12.5 7.5
v -7.5 -12.5 -7.5
v -7.5 -0.1 7.5
v -7.5 -0.1 -7.5
v -2 -3.1 2
v -2 -3.1 -1.8
v -2 12.5 2
v -2 12.5 -1.8
v -1 -12.5 -0.800001
v -1 -12.5 -0.9
v -1 -12.4 -0.800001
v -1 -12.4 -0.9
v 3.5 -3.1 3.5
v 3.5 -3.1 -3.5
v 3.5 -0.1 3.5
v 3.5 -0.1 -3.5
v -3.5 -3.1 3.5
v -3.5 -3.1 -3.5
v -3.5 -0.1 3.5
v -3.5 -0.1 -3.5
v -1.1 -12.5 -0.800001
v -1.1 -12.5 -0.9
v -1.1 -12.4 -0.800001
v -1.1 -12.4 -0.9
v 2.5 -3.1 2
v 2.5 -3.1 -1.8
v 2.5 12.5 2
v 2.5 12.5 -1.8
v 7.5 -12.5 7.5
v 7.5 -12.5 -7.5
v 7.5 -0.1 7.5
v 7.5 -0.1 -7.5
v -7.5 -12.5 7.5
v -7.5 -0.1 7.5
v 7.5 -12.5 7.5
v 7.5 -0.1 7.5
v -2 -3.1 2
v -2 12.5 2
v 2.5 -3.1 2
v 2.5 12.5 2
v -1.1 -12.5 -0.9
v -1.1 -12.4 -0.9
v -1 -12.5 -0.9
v -1 -12.4 -0.9
v -3.5 -3.1 -3.5
v -3.5 -0.1 -3.5
v 3.5 -3.1 -3.5
v 3.5 -0.1 -3.5
v -3.5 -3.1 3.5
v -3.5 -0.1 3.5
v 3.5 -3.1 3.5
v 3.5 -0.1 3.5
v -1.1 -12.5 -0.800001
v -1.1 -12.4 -0.800001
v -1 -12.5 -0.800001
v -1 -12.4 -0.800001
v -2 -3.1 -1.8
v -2 12.5 -1.8
v 2.5 -3.1 -1.8
v 2.5 12.5 -1.8
v -7.5 -12.5 -7.5
v -7.5 -0.1 -7.5
v 7.5 -12.5 -7.5
v 7.5 -0.1 -7.5
v -7.5 -12.5 7.5
v 7.5 -12.5 7.5
v -3.5 -12.5 3.5
v 3.5 -12.5 3.5
v -1.1 -12.5 -0.800001
v -1 -12.5 -0.800001
v -1.1 -12.5 -0.9
v -1 -12.5 -0.9
v -3.5 -12.5 -3.5
v 3.5 -12.5 -3.5
v -7.5 -12.5 -7.5
v 7.5 -12.5 -7.5
v -1.1 -12.4 -0.800001
v -1 -12.4 -0.800001
v -1.1 -12.4 -0.9
v -1 -12.4 -0.9
v -3.5 -3.1 3.5
v 3.5 -3.1 3.5
v -2 -3.1 2
v 2.5 -3.1 2
v -2 -3.1 -1.8
v 2.5 -3.1 -1.8
v -3.5 -3.1 -3.5
v 3.5 -3.1 -3.5
v -7.5 -0.1 7.5
v 7.5 -0.1 7.5
v -3.5 -0.1 3.5
v 3.5 -0.1 3.5
v -3.5 -0.1 -3.5
v 3.5 -0.1 -3.5
v -7.5 -0.1 -7.5
v 7.5 -0.1 -7.5
v -2 12.5 2
v 2.5 12.5 2
v -2 12.5 -1.8
v 2.5 12.5 -1.8

# faces
f 3/3/1 2/3/1 1/3/1
f 4/3/1 2/3/1 3/3/1
f 7/3/1 6/3/1 5/3/1
f 8/3/1 6/3/1 7/3/1
f 11/4/1 10/4/1 9/4/1
f 12/4/1 10/4/1 11/4/1
f 15/3/1 14/3/1 13/3/1
f 16/3/1 14/3/1 15/3/1
f 17/3/2 18/3/2 19/3/2
f 19/3/2 18/3/2 20/3/2
f 21/4/2 22/4/2 23/4/2
f 23/4/2 22/4/2 24/4/2
f 25/3/2 26/3/2 27/3/2
f 27/3/2 26/3/2 28/3/2
f 29/3/2 30/3/2 31/3/2
f 31/3/2 30/3/2 32/3/2
f 35/3/3 34/3/3 33/3/3
f 36/3/3 34/3/3 35/3/3
f 39/3/3 38/3/3 37/3/3
f 40/3/3 38/3/3 39/3/3
f 43/4/3 42/4/3 41/4/3
f 44/4/3 42/4/3 43/4/3
f 47/3/3 46/3/3 45/3/3
f 48/3/3 46/3/3 47/3/3
f 49/3/4 50/3/4 51/3/4
f 51/3/4 50/3/4 52/3/4
f 53/4/4 54/4/4 55/4/4
f 55/4/4 54/4/4 56/4/4
f 57/3/4 58/3/4 59/3/4
f 59/3/4 58/3/4 60/3/4
f 61/3/4 62/3/4 63/3/4
f 63/3/4 62/3/4 64/3/4
f 67/3/5 66/3/5 65/3/5
f 68/3/5 66/3/5 67/3/5
f 69/4/5 68/4/5 67/4/5
f 70/4/5 68/4/5 69/4/5
f 71/4/5 69/4/5 67/4/5
f 72/4/5 68/4/5 70/4/5
f 73/3/5 67/3/5 65/3/5
f 73/4/5 72/4/5 71/4/5
f 73/4/5 71/4/5 67/4/5
f 74/4/5 68/4/5 72/4/5
f 74/4/5 72/4/5 73/4/5
f 74/3/5 66/3/5 68/3/5
f 75/3/5 73/3/5 65/3/5
f 75/3/5 74/3/5 73/3/5
f 76/3/5 66/3/5 74/3/5
f 76/3/5 74/3/5 75/3/5
f 79/3/5 78/3/5 77/3/5
f 80/3/5 78/3/5 79/3/5
f 81/4/6 82/4/6 83/4/6
f 83/4/6 82/4/6 84/4/6
f 81/4/6 83/4/6 85/4/6
f 84/4/6 82/4/6 86/4/6
f 81/4/6 85/4/6 87/4/6
f 85/4/6 86/4/6 87/4/6
f 86/4/6 82/4/6 88/4/6
f 87/4/6 86/4/6 88/4/6
f 89/3/6 90/3/6 91/3/6
f 91/3/6 90/3/6 92/3/6
f 89/3/6 91/3/6 93/3/6
f 92/3/6 90/3/6 94/3/6
f 89/3/6 93/3/6 95/3/6
f 93/3/6 94/3/6 95/3/6
f 94/3/6 90/3/6 96/3/6
f 95/3/6 94/3/6 96/3/6
f 97/3/6 98/3/6 99/3/6
f 99/3/6 98/3/6 100/3/6
