# MagicaVoxel @ Ephtracy

# group
o 

# material
mtllib seller-5.mtl
usemtl palette

# normals
vn -1 0 0
vn 1 0 0
vn 0 0 1
vn 0 0 -1
vn 0 -1 0
vn 0 1 0

# texcoords
vt 0.267578 0.5
vt 0.462891 0.5
vt 0.482422 0.5
vt 0.494141 0.5
vt 0.505859 0.5
vt 0.720703 0.5
vt 0.853516 0.5

# verts
v -1.7 -1.3 1
v -1.7 -1.3 -1.4
v -1.7 1.4 1
v -1.7 1.4 -1.4
v -0.4 -1.1 1.1
v -0.4 -1.1 1
v -0.4 -0.7 1
v -0.4 -0.5 1
v -0.4 -0.3 1.3
v -0.4 -0.3 1.1
v -0.4 -1.19209e-07 1.3
v -0.4 -1.19209e-07 1
v -0.3 -1 1.3
v -0.3 -1 1.1
v -0.3 -0.3 1.3
v -0.3 -0.3 1.1
v -0.3 -1.19209e-07 1.1
v -0.3 -1.19209e-07 1
v -0.3 0.6 1.1
v -0.3 0.6 1
v -0.2 -1.2 1.3
v -0.2 -1.2 1.1
v -0.2 -1.1 1.1
v -0.2 -1 1.3
v -0.2 -1 1.1
v 0.2 -1.2 1.3
v 0.2 -1.2 1.1
v 0.2 -1.1 1.1
v 0.2 -1 1.3
v 0.2 -1 1.1
v 0.3 -1 1.3
v 0.3 -1 1.1
v 0.3 -0.3 1.3
v 0.3 -0.3 1.1
v 0.3 -1.19209e-07 1.1
v 0.3 -1.19209e-07 1
v 0.3 0.6 1.1
v 0.3 0.6 1
v 0.4 -1.1 1.1
v 0.4 -1.1 1
v 0.4 -0.7 1
v 0.4 -0.5 1
v 0.4 -0.3 1.3
v 0.4 -0.3 1.1
v 0.4 -1.19209e-07 1.3
v 0.4 -1.19209e-07 1
v 1.7 -1.3 1
v 1.7 -1.3 -1.4
v 1.7 1.4 1
v 1.7 1.4 -1.4
v -0.4 -0.3 1.3
v -0.4 -1.19209e-07 1.3
v -0.3 -1 1.3
v -0.3 -0.3 1.3
v -0.2 -1.2 1.3
v -0.2 -1 1.3
v 0.2 -1.2 1.3
v 0.2 -1 1.3
v 0.3 -1 1.3
v 0.3 -0.3 1.3
v 0.4 -0.3 1.3
v 0.4 -1.19209e-07 1.3
v -0.4 -1.1 1.1
v -0.4 -0.3 1.1
v -0.3 -1 1.1
v -0.3 -0.3 1.1
v -0.3 -1.19209e-07 1.1
v -0.3 0.6 1.1
v -0.2 -1.1 1.1
v -0.2 -1 1.1
v 0.2 -1.1 1.1
v 0.2 -1 1.1
v 0.3 -1 1.1
v 0.3 -0.3 1.1
v 0.3 -1.19209e-07 1.1
v 0.3 0.6 1.1
v 0.4 -1.1 1.1
v 0.4 -0.3 1.1
v -1.7 -1.3 1
v -1.7 1.4 1
v -1.2 -1.19209e-07 1
v -1.2 0.6 1
v -1.2 0.9 1
v -0.9 -0.7 1
v -0.9 -0.5 1
v -0.8 -1.19209e-07 1
v -0.8 0.6 1
v -0.4 -1.1 1
v -0.4 -0.7 1
v -0.4 -0.5 1
v -0.4 -1.19209e-07 1
v -0.3 -1.19209e-07 1
v -0.3 0.6 1
v -0.2 -1.1 1
v 0.2 -1.1 1
v 0.3 -1.19209e-07 1
v 0.3 0.6 1
v 0.4 -1.1 1
v 0.4 -0.7 1
v 0.4 -0.5 1
v 0.4 -1.19209e-07 1
v 0.7 -1.19209e-07 1
v 0.7 0.6 1
v 1 -0.7 1
v 1 -0.5 1
v 1.2 -1.19209e-07 1
v 1.2 0.6 1
v 1.2 0.9 1
v 1.7 -1.3 1
v 1.7 1.4 1
v -0.2 -1.2 1.1
v -0.2 -1.1 1.1
v 0.2 -1.2 1.1
v 0.2 -1.1 1.1
v -1.7 -1.3 -1.4
v -1.7 1.4 -1.4
v 1.7 -1.3 -1.4
v 1.7 1.4 -1.4
v -1.7 -1.3 1
v 1.7 -1.3 1
v -1.7 -1.3 -1.4
v 1.7 -1.3 -1.4
v -0.2 -1.2 1.3
v 0.2 -1.2 1.3
v -0.2 -1.2 1.1
v 0.2 -1.2 1.1
v -0.4 -1.1 1.1
v -0.2 -1.1 1.1
v 0.2 -1.1 1.1
v 0.4 -1.1 1.1
v -0.4 -1.1 1
v -0.2 -1.1 1
v 0.2 -1.1 1
v 0.4 -1.1 1
v -0.3 -1 1.3
v -0.2 -1 1.3
v 0.2 -1 1.3
v 0.3 -1 1.3
v -0.3 -1 1.1
v -0.2 -1 1.1
v 0.2 -1 1.1
v 0.3 -1 1.1
v -0.4 -0.3 1.3
v -0.3 -0.3 1.3
v 0.3 -0.3 1.3
v 0.4 -0.3 1.3
v -0.4 -0.3 1.1
v -0.3 -0.3 1.1
v 0.3 -0.3 1.1
v 0.4 -0.3 1.1
v -0.4 -1.19209e-07 1.3
v 0.4 -1.19209e-07 1.3
v -0.3 -1.19209e-07 1.1
v 0.3 -1.19209e-07 1.1
v -0.4 -1.19209e-07 1
v -0.3 -1.19209e-07 1
v 0.3 -1.19209e-07 1
v 0.4 -1.19209e-07 1
v -0.3 0.6 1.1
v 0.3 0.6 1.1
v -0.3 0.6 1
v 0.3 0.6 1
v -1.7 1.4 1
v 1.7 1.4 1
v -1.7 1.4 -1.4
v 1.7 1.4 -1.4

# faces
f 3/5/1 2/5/1 1/5/1
f 4/5/1 2/5/1 3/5/1
f 7/7/1 6/7/1 5/7/1
f 8/7/1 7/7/1 5/7/1
f 10/7/1 8/7/1 5/7/1
f 11/7/1 10/7/1 9/7/1
f 12/7/1 8/7/1 10/7/1
f 12/7/1 10/7/1 11/7/1
f 15/7/1 14/7/1 13/7/1
f 16/7/1 14/7/1 15/7/1
f 19/7/1 18/7/1 17/7/1
f 20/7/1 18/7/1 19/7/1
f 23/7/1 22/7/1 21/7/1
f 24/7/1 23/7/1 21/7/1
f 25/7/1 23/7/1 24/7/1
f 26/7/2 27/7/2 28/7/2
f 26/7/2 28/7/2 29/7/2
f 29/7/2 28/7/2 30/7/2
f 31/7/2 32/7/2 33/7/2
f 33/7/2 32/7/2 34/7/2
f 35/7/2 36/7/2 37/7/2
f 37/7/2 36/7/2 38/7/2
f 39/7/2 40/7/2 41/7/2
f 39/7/2 41/7/2 42/7/2
f 39/7/2 42/7/2 44/7/2
f 43/7/2 44/7/2 45/7/2
f 44/7/2 42/7/2 46/7/2
f 45/7/2 44/7/2 46/7/2
f 47/5/2 48/5/2 49/5/2
f 49/5/2 48/5/2 50/5/2
f 54/7/3 52/7/3 51/7/3
f 56/7/3 54/7/3 53/7/3
f 57/7/3 56/7/3 55/7/3
f 58/7/3 54/7/3 56/7/3
f 58/7/3 56/7/3 57/7/3
f 59/7/3 54/7/3 58/7/3
f 60/7/3 52/7/3 54/7/3
f 60/7/3 54/7/3 59/7/3
f 61/7/3 52/7/3 60/7/3
f 62/7/3 52/7/3 61/7/3
f 65/7/3 64/7/3 63/7/3
f 66/7/3 64/7/3 65/7/3
f 69/7/3 65/7/3 63/7/3
f 70/7/3 65/7/3 69/7/3
f 73/7/3 72/7/3 71/7/3
f 75/7/3 68/7/3 67/7/3
f 76/7/3 68/7/3 75/7/3
f 77/7/3 74/7/3 73/7/3
f 77/7/3 73/7/3 71/7/3
f 78/7/3 74/7/3 77/7/3
f 81/5/3 80/5/3 79/5/3
f 82/5/3 80/5/3 81/5/3
f 83/5/3 80/5/3 82/5/3
f 84/5/3 81/5/3 79/5/3
f 85/5/3 81/5/3 84/5/3
f 86/6/3 82/6/3 81/6/3
f 86/5/3 81/5/3 85/5/3
f 87/2/3 83/2/3 82/2/3
f 87/6/3 82/6/3 86/6/3
f 88/5/3 84/5/3 79/5/3
f 89/6/3 85/6/3 84/6/3
f 89/5/3 84/5/3 88/5/3
f 90/5/3 86/5/3 85/5/3
f 90/6/3 85/6/3 89/6/3
f 91/1/3 87/1/3 86/1/3
f 91/5/3 86/5/3 90/5/3
f 92/1/3 87/1/3 91/1/3
f 93/2/3 83/2/3 87/2/3
f 93/1/3 87/1/3 92/1/3
f 94/5/3 88/5/3 79/5/3
f 95/5/3 94/5/3 79/5/3
f 97/2/3 83/2/3 93/2/3
f 98/5/3 95/5/3 79/5/3
f 101/1/3 97/1/3 96/1/3
f 102/1/3 97/1/3 101/1/3
f 102/5/3 101/5/3 100/5/3
f 103/2/3 83/2/3 97/2/3
f 103/1/3 97/1/3 102/1/3
f 104/6/3 100/6/3 99/6/3
f 104/5/3 99/5/3 98/5/3
f 105/5/3 102/5/3 100/5/3
f 105/6/3 100/6/3 104/6/3
f 106/6/3 103/6/3 102/6/3
f 106/5/3 102/5/3 105/5/3
f 106/5/3 105/5/3 104/5/3
f 107/2/3 83/2/3 103/2/3
f 107/6/3 103/6/3 106/6/3
f 108/5/3 80/5/3 83/5/3
f 108/2/3 83/2/3 107/2/3
f 109/5/3 107/5/3 106/5/3
f 109/5/3 106/5/3 104/5/3
f 109/5/3 108/5/3 107/5/3
f 109/5/3 104/5/3 98/5/3
f 109/5/3 98/5/3 79/5/3
f 110/5/3 80/5/3 108/5/3
f 110/5/3 108/5/3 109/5/3
f 111/7/4 112/7/4 113/7/4
f 113/7/4 112/7/4 114/7/4
f 115/5/4 116/5/4 117/5/4
f 117/5/4 116/5/4 118/5/4
f 121/5/5 120/5/5 119/5/5
f 122/5/5 120/5/5 121/5/5
f 125/7/5 124/7/5 123/7/5
f 126/7/5 124/7/5 125/7/5
f 131/7/5 128/7/5 127/7/5
f 132/3/5 129/3/5 128/3/5
f 132/7/5 128/7/5 131/7/5
f 133/7/5 130/7/5 129/7/5
f 133/3/5 129/3/5 132/3/5
f 134/7/5 130/7/5 133/7/5
f 139/7/5 136/7/5 135/7/5
f 140/7/5 136/7/5 139/7/5
f 141/7/5 138/7/5 137/7/5
f 142/7/5 138/7/5 141/7/5
f 147/7/5 144/7/5 143/7/5
f 148/7/5 144/7/5 147/7/5
f 149/7/5 146/7/5 145/7/5
f 150/7/5 146/7/5 149/7/5
f 151/7/6 152/7/6 153/7/6
f 153/7/6 152/7/6 154/7/6
f 151/7/6 153/7/6 155/7/6
f 155/7/6 153/7/6 156/7/6
f 154/7/6 152/7/6 157/7/6
f 157/7/6 152/7/6 158/7/6
f 159/7/6 160/7/6 161/7/6
f 161/7/6 160/7/6 162/7/6
f 163/5/6 164/5/6 165/5/6
f 165/5/6 164/5/6 166/5/6
