# MagicaVoxel @ Ephtracy

# group
o 

# material
mtllib seller-1.mtl
usemtl palette

# normals
vn -1 0 0
vn 1 0 0
vn 0 0 1
vn 0 0 -1
vn 0 -1 0
vn 0 1 0

# texcoords
vt 0.0527344 0.5
vt 0.185547 0.5
vt 0.373047 0.5
vt 0.419922 0.5
vt 0.482422 0.5
vt 0.876953 0.5
vt 0.939453 0.5

# verts
v -1.7 -2.1 1
v -1.7 -2.1 -1.1
v -1.7 2.2 1
v -1.7 2.2 -1.1
v 1.7 -2.1 1
v 1.7 -2.1 -1.1
v 1.7 2.2 1
v 1.7 2.2 -1.1
v -1.7 -2.1 1
v -1.7 2.2 1
v -0.8 -2.1 1
v -0.8 2.2 1
v -0.4 -2.1 1
v -0.4 1 1
v -0.4 2.2 1
v 0 0.0999999 1
v 0 1 1
v 0.4 -2.1 1
v 0.4 0.0999999 1
v 0.4 2.2 1
v 0.8 -2.1 1
v 0.8 2.2 1
v 1.7 -2.1 1
v 1.7 2.2 1
v -1.7 -2.1 -1.1
v -1.7 2.2 -1.1
v 1.7 -2.1 -1.1
v 1.7 2.2 -1.1
v -1.7 -2.1 1
v -0.8 -2.1 1
v -0.4 -2.1 1
v 0.4 -2.1 1
v 0.8 -2.1 1
v 1.7 -2.1 1
v -0.8 -2.1 0.9
v -0.4 -2.1 0.9
v 0.4 -2.1 0.9
v 0.8 -2.1 0.9
v -1.7 -2.1 -1.1
v 1.7 -2.1 -1.1
v -1.7 2.2 1
v -0.8 2.2 1
v -0.4 2.2 1
v 0.4 2.2 1
v 0.8 2.2 1
v 1.7 2.2 1
v -0.8 2.2 0.9
v -0.4 2.2 0.9
v 0.4 2.2 0.9
v 0.8 2.2 0.9
v -1.7 2.2 -1.1
v 1.7 2.2 -1.1

# faces
f 3/4/1 2/4/1 1/4/1
f 4/4/1 2/4/1 3/4/1
f 5/4/2 6/4/2 7/4/2
f 7/4/2 6/4/2 8/4/2
f 11/4/3 10/4/3 9/4/3
f 12/4/3 10/4/3 11/4/3
f 13/5/3 12/5/3 11/5/3
f 14/5/3 12/5/3 13/5/3
f 15/5/3 12/5/3 14/5/3
f 16/4/3 14/4/3 13/4/3
f 17/3/3 15/3/3 14/3/3
f 17/4/3 14/4/3 16/4/3
f 18/4/3 16/4/3 13/4/3
f 19/3/3 17/3/3 16/3/3
f 19/4/3 16/4/3 18/4/3
f 20/3/3 15/3/3 17/3/3
f 20/3/3 17/3/3 19/3/3
f 21/5/3 19/5/3 18/5/3
f 21/5/3 20/5/3 19/5/3
f 22/5/3 20/5/3 21/5/3
f 23/4/3 22/4/3 21/4/3
f 24/4/3 22/4/3 23/4/3
f 25/4/4 26/4/4 27/4/4
f 27/4/4 26/4/4 28/4/4
f 35/4/5 30/4/5 29/4/5
f 35/5/5 31/5/5 30/5/5
f 36/4/5 32/4/5 31/4/5
f 36/5/5 31/5/5 35/5/5
f 37/5/5 33/5/5 32/5/5
f 37/4/5 32/4/5 36/4/5
f 38/4/5 34/4/5 33/4/5
f 38/5/5 33/5/5 37/5/5
f 39/4/5 37/4/5 36/4/5
f 39/4/5 36/4/5 35/4/5
f 39/4/5 38/4/5 37/4/5
f 39/4/5 35/4/5 29/4/5
f 40/4/5 34/4/5 38/4/5
f 40/4/5 38/4/5 39/4/5
f 41/4/6 42/4/6 47/4/6
f 42/5/6 43/5/6 47/5/6
f 43/3/6 44/3/6 48/3/6
f 47/5/6 43/5/6 48/5/6
f 44/5/6 45/5/6 49/5/6
f 48/3/6 44/3/6 49/3/6
f 45/4/6 46/4/6 50/4/6
f 49/5/6 45/5/6 50/5/6
f 48/4/6 49/4/6 51/4/6
f 47/4/6 48/4/6 51/4/6
f 49/4/6 50/4/6 51/4/6
f 41/4/6 47/4/6 51/4/6
f 50/4/6 46/4/6 52/4/6
f 51/4/6 50/4/6 52/4/6
