# MagicaVoxel @ Ephtracy

# group
o 

# material
mtllib dessicant-2.mtl
usemtl palette

# normals
vn -1 0 0
vn 1 0 0
vn 0 0 1
vn 0 0 -1
vn 0 -1 0
vn 0 1 0

# texcoords
vt 0.330078 0.5
vt 0.462891 0.5
vt 0.466797 0.5
vt 0.556641 0.5

# verts
v -5 1.8 2
v -5 1.8 -2.1
v -5 2.3 2
v -5 2.3 -2.1
v -1.7 -2.5 0.8
v -1.7 -2.5 -1.3
v -1.7 -1.5 0.8
v -1.7 -1.5 -1.3
v -1.7 -1.1 0.8
v -1.7 -1.1 -1.3
v -1.7 -0.0999999 0.8
v -1.7 -0.0999999 -1.3
v -1.7 0.3 0.8
v -1.7 0.3 -1.3
v -1.7 1.4 0.8
v -1.7 1.4 -1.3
v -0.8 2.3 1.1
v -0.8 2.3 -0.6
v -0.8 2.5 1.1
v -0.8 2.5 -0.6
v -0.5 -2.5 0.5
v -0.5 -2.5 -1
v -0.5 -1.5 0.8
v -0.5 -1.5 0.5
v -0.5 -1.5 -1
v -0.5 -1.5 -1.3
v -0.5 -1.1 0.8
v -0.5 -1.1 0.5
v -0.5 -1.1 -1
v -0.5 -1.1 -1.3
v -0.5 -0.0999999 0.8
v -0.5 -0.0999999 0.5
v -0.5 -0.0999999 -1
v -0.5 -0.0999999 -1.3
v -0.5 0.3 0.8
v -0.5 0.3 0.5
v -0.5 0.3 -1
v -0.5 0.3 -1.3
v -0.5 1.4 0.8
v -0.5 1.4 0.5
v -0.5 1.4 -1
v -0.5 1.4 -1.3
v -0.5 1.8 0.8
v -0.5 1.8 0.7
v -0.5 1.8 -1.2
v -0.5 1.8 -1.3
v 1.4 -2.5 0.5
v 1.4 -2.5 -1
v 1.4 -1.5 0.5
v 1.4 -1.5 -1
v 1.4 -1.1 0.5
v 1.4 -1.1 -1
v 1.4 -0.0999999 0.5
v 1.4 -0.0999999 -1
v 1.4 0.3 0.5
v 1.4 0.3 -1
v 1.4 1.4 0.5
v 1.4 1.4 -1
v -1.4 -2.5 0.5
v -1.4 -2.5 -1
v -1.4 -1.5 0.5
v -1.4 -1.5 -1
v -1.4 -1.1 0.5
v -1.4 -1.1 -1
v -1.4 -0.0999999 0.5
v -1.4 -0.0999999 -1
v -1.4 0.3 0.5
v -1.4 0.3 -1
v -1.4 1.4 0.5
v -1.4 1.4 -1
v 0.4 -2.5 0.5
v 0.4 -2.5 -1
v 0.4 -1.5 0.8
v 0.4 -1.5 0.5
v 0.4 -1.5 -1
v 0.4 -1.5 -1.3
v 0.4 -1.1 0.8
v 0.4 -1.1 0.5
v 0.4 -1.1 -1
v 0.4 -1.1 -1.3
v 0.4 -0.0999999 0.8
v 0.4 -0.0999999 0.5
v 0.4 -0.0999999 -1
v 0.4 -0.0999999 -1.3
v 0.4 0.3 0.8
v 0.4 0.3 0.5
v 0.4 0.3 -1
v 0.4 0.3 -1.3
v 0.4 1.4 0.8
v 0.4 1.4 0.7
v 0.4 1.4 0.5
v 0.4 1.4 -1
v 0.4 1.4 -1.2
v 0.4 1.4 -1.3
v 0.4 1.5 0.7
v 0.4 1.5 -1.2
v 0.4 1.8 0.8
v 0.4 1.8 -1.3
v 0.6 2.3 1.1
v 0.6 2.3 -0.6
v 0.6 2.5 1.1
v 0.6 2.5 -0.6
v 1.7 -2.5 0.8
v 1.7 -2.5 -1.3
v 1.7 -1.5 0.8
v 1.7 -1.5 -1.3
v 1.7 -1.1 0.8
v 1.7 -1.1 -1.3
v 1.7 -0.0999999 0.8
v 1.7 -0.0999999 -1.3
v 1.7 0.3 0.8
v 1.7 0.3 -1.3
v 1.7 1.4 0.8
v 1.7 1.4 -1.3
v 5 1.8 2
v 5 1.8 -2.1
v 5 2.3 2
v 5 2.3 -2.1
v -5 1.8 2
v -5 2.3 2
v 5 1.8 2
v 5 2.3 2
v -0.8 2.3 1.1
v -0.8 2.5 1.1
v 0.6 2.3 1.1
v 0.6 2.5 1.1
v -1.7 -2.5 0.8
v -1.7 -1.5 0.8
v -1.7 -1.1 0.8
v -1.7 -0.0999999 0.8
v -1.7 0.3 0.8
v -1.7 1.4 0.8
v -0.5 -1.5 0.8
v -0.5 -1.1 0.8
v -0.5 -0.0999999 0.8
v -0.5 0.3 0.8
v -0.5 1.4 0.8
v -0.5 1.8 0.8
v 0.4 -1.5 0.8
v 0.4 -1.1 0.8
v 0.4 -0.0999999 0.8
v 0.4 0.3 0.8
v 0.4 1.4 0.8
v 0.4 1.8 0.8
v 1.7 -2.5 0.8
v 1.7 -1.5 0.8
v 1.7 -1.1 0.8
v 1.7 -0.0999999 0.8
v 1.7 0.3 0.8
v 1.7 1.4 0.8
v -1.4 -2.5 -1
v -1.4 -1.5 -1
v -1.4 -1.1 -1
v -1.4 -0.0999999 -1
v -1.4 0.3 -1
v -1.4 1.4 -1
v -0.5 -2.5 -1
v -0.5 -1.5 -1
v -0.5 -1.1 -1
v -0.5 -0.0999999 -1
v -0.5 0.3 -1
v -0.5 1.4 -1
v 0.4 -2.5 -1
v 0.4 -1.5 -1
v 0.4 -1.1 -1
v 0.4 -0.0999999 -1
v 0.4 0.3 -1
v 0.4 1.4 -1
v 1.4 -2.5 -1
v 1.4 -1.5 -1
v 1.4 -1.1 -1
v 1.4 -0.0999999 -1
v 1.4 0.3 -1
v 1.4 1.4 -1
v -1.4 -2.5 0.5
v -1.4 -1.5 0.5
v -1.4 -1.1 0.5
v -1.4 -0.0999999 0.5
v -1.4 0.3 0.5
v -1.4 1.4 0.5
v -0.5 -2.5 0.5
v -0.5 -1.5 0.5
v -0.5 -1.1 0.5
v -0.5 -0.0999999 0.5
v -0.5 0.3 0.5
v -0.5 1.4 0.5
v 0.4 -2.5 0.5
v 0.4 -1.5 0.5
v 0.4 -1.1 0.5
v 0.4 -0.0999999 0.5
v 0.4 0.3 0.5
v 0.4 1.4 0.5
v 1.4 -2.5 0.5
v 1.4 -1.5 0.5
v 1.4 -1.1 0.5
v 1.4 -0.0999999 0.5
v 1.4 0.3 0.5
v 1.4 1.4 0.5
v -0.8 2.3 -0.6
v -0.8 2.5 -0.6
v 0.6 2.3 -0.6
v 0.6 2.5 -0.6
v -1.7 -2.5 -1.3
v -1.7 -1.5 -1.3
v -1.7 -1.1 -1.3
v -1.7 -0.0999999 -1.3
v -1.7 0.3 -1.3
v -1.7 1.4 -1.3
v -0.5 -1.5 -1.3
v -0.5 -1.1 -1.3
v -0.5 -0.0999999 -1.3
v -0.5 0.3 -1.3
v -0.5 1.4 -1.3
v -0.5 1.8 -1.3
v 0.4 -1.5 -1.3
v 0.4 -1.1 -1.3
v 0.4 -0.0999999 -1.3
v 0.4 0.3 -1.3
v 0.4 1.4 -1.3
v 0.4 1.8 -1.3
v 1.7 -2.5 -1.3
v 1.7 -1.5 -1.3
v 1.7 -1.1 -1.3
v 1.7 -0.0999999 -1.3
v 1.7 0.3 -1.3
v 1.7 1.4 -1.3
v -5 1.8 -2.1
v -5 2.3 -2.1
v 5 1.8 -2.1
v 5 2.3 -2.1
v -1.7 -2.5 0.8
v 1.7 -2.5 0.8
v -1.4 -2.5 0.5
v -0.5 -2.5 0.5
v 0.4 -2.5 0.5
v 1.4 -2.5 0.5
v -1.4 -2.5 -1
v -0.5 -2.5 -1
v 0.4 -2.5 -1
v 1.4 -2.5 -1
v -1.7 -2.5 -1.3
v 1.7 -2.5 -1.3
v -1.7 -1.1 0.8
v -0.5 -1.1 0.8
v 0.4 -1.1 0.8
v 1.7 -1.1 0.8
v -1.4 -1.1 0.5
v -0.5 -1.1 0.5
v 0.4 -1.1 0.5
v 1.4 -1.1 0.5
v -1.4 -1.1 -1
v -0.5 -1.1 -1
v 0.4 -1.1 -1
v 1.4 -1.1 -1
v -1.7 -1.1 -1.3
v -0.5 -1.1 -1.3
v 0.4 -1.1 -1.3
v 1.7 -1.1 -1.3
v -1.7 0.3 0.8
v -0.5 0.3 0.8
v 0.4 0.3 0.8
v 1.7 0.3 0.8
v -1.4 0.3 0.5
v -0.5 0.3 0.5
v 0.4 0.3 0.5
v 1.4 0.3 0.5
v -1.4 0.3 -1
v -0.5 0.3 -1
v 0.4 0.3 -1
v 1.4 0.3 -1
v -1.7 0.3 -1.3
v -0.5 0.3 -1.3
v 0.4 0.3 -1.3
v 1.7 0.3 -1.3
v -5 1.8 2
v 5 1.8 2
v -0.5 1.8 0.8
v 0.4 1.8 0.8
v -0.6 1.8 0.7
v -0.5 1.8 0.7
v -0.6 1.8 -1.2
v -0.5 1.8 -1.2
v -0.5 1.8 -1.3
v 0.4 1.8 -1.3
v -5 1.8 -2.1
v 5 1.8 -2.1
v -1.7 -1.5 0.8
v -0.5 -1.5 0.8
v 0.4 -1.5 0.8
v 1.7 -1.5 0.8
v -1.4 -1.5 0.5
v -0.5 -1.5 0.5
v 0.4 -1.5 0.5
v 1.4 -1.5 0.5
v -1.4 -1.5 -1
v -0.5 -1.5 -1
v 0.4 -1.5 -1
v 1.4 -1.5 -1
v -1.7 -1.5 -1.3
v -0.5 -1.5 -1.3
v 0.4 -1.5 -1.3
v 1.7 -1.5 -1.3
v -1.7 -0.0999999 0.8
v -0.5 -0.0999999 0.8
v 0.4 -0.0999999 0.8
v 1.7 -0.0999999 0.8
v -1.4 -0.0999999 0.5
v -0.5 -0.0999999 0.5
v 0.4 -0.0999999 0.5
v 1.4 -0.0999999 0.5
v -1.4 -0.0999999 -1
v -0.5 -0.0999999 -1
v 0.4 -0.0999999 -1
v 1.4 -0.0999999 -1
v -1.7 -0.0999999 -1.3
v -0.5 -0.0999999 -1.3
v 0.4 -0.0999999 -1.3
v 1.7 -0.0999999 -1.3
v -1.7 1.4 0.8
v -0.5 1.4 0.8
v 0.4 1.4 0.8
v 1.7 1.4 0.8
v 0.4 1.4 0.7
v -1.4 1.4 0.5
v -0.5 1.4 0.5
v 0.4 1.4 0.5
v 1.4 1.4 0.5
v -1.4 1.4 -1
v -0.5 1.4 -1
v 0.4 1.4 -1
v 1.4 1.4 -1
v 0.4 1.4 -1.2
v -1.7 1.4 -1.3
v -0.5 1.4 -1.3
v 0.4 1.4 -1.3
v 1.7 1.4 -1.3
v -5 2.3 2
v 5 2.3 2
v -0.8 2.3 1.1
v 0.6 2.3 1.1
v -0.8 2.3 -0.6
v 0.6 2.3 -0.6
v -5 2.3 -2.1
v 5 2.3 -2.1
v -0.8 2.5 1.1
v 0.6 2.5 1.1
v -0.8 2.5 -0.6
v 0.6 2.5 -0.6

# faces
f 3/3/1 2/3/1 1/3/1
f 4/3/1 2/3/1 3/3/1
f 7/3/1 6/3/1 5/3/1
f 8/3/1 6/3/1 7/3/1
f 11/3/1 10/3/1 9/3/1
f 12/3/1 10/3/1 11/3/1
f 15/3/1 14/3/1 13/3/1
f 16/3/1 14/3/1 15/3/1
f 19/2/1 18/2/1 17/2/1
f 20/2/1 18/2/1 19/2/1
f 24/3/1 22/3/1 21/3/1
f 25/3/1 22/3/1 24/3/1
f 27/1/1 24/1/1 23/1/1
f 27/1/1 26/1/1 25/1/1
f 27/1/1 25/1/1 24/1/1
f 28/1/1 26/1/1 27/1/1
f 29/1/1 26/1/1 28/1/1
f 30/1/1 26/1/1 29/1/1
f 32/3/1 29/3/1 28/3/1
f 33/3/1 29/3/1 32/3/1
f 35/1/1 32/1/1 31/1/1
f 35/1/1 34/1/1 33/1/1
f 35/1/1 33/1/1 32/1/1
f 36/1/1 34/1/1 35/1/1
f 37/1/1 34/1/1 36/1/1
f 38/1/1 34/1/1 37/1/1
f 40/3/1 37/3/1 36/3/1
f 41/3/1 37/3/1 40/3/1
f 43/1/1 40/1/1 39/1/1
f 43/1/1 42/1/1 41/1/1
f 43/1/1 41/1/1 40/1/1
f 44/1/1 42/1/1 43/1/1
f 45/1/1 42/1/1 44/1/1
f 46/1/1 42/1/1 45/1/1
f 49/3/1 48/3/1 47/3/1
f 50/3/1 48/3/1 49/3/1
f 53/3/1 52/3/1 51/3/1
f 54/3/1 52/3/1 53/3/1
f 57/3/1 56/3/1 55/3/1
f 58/3/1 56/3/1 57/3/1
f 59/3/2 60/3/2 61/3/2
f 61/3/2 60/3/2 62/3/2
f 63/3/2 64/3/2 65/3/2
f 65/3/2 64/3/2 66/3/2
f 67/3/2 68/3/2 69/3/2
f 69/3/2 68/3/2 70/3/2
f 71/3/2 72/3/2 74/3/2
f 74/3/2 72/3/2 75/3/2
f 73/1/2 74/1/2 77/1/2
f 75/1/2 76/1/2 77/1/2
f 74/1/2 75/1/2 77/1/2
f 77/1/2 76/1/2 78/1/2
f 78/1/2 76/1/2 79/1/2
f 79/1/2 76/1/2 80/1/2
f 78/3/2 79/3/2 82/3/2
f 82/3/2 79/3/2 83/3/2
f 81/1/2 82/1/2 85/1/2
f 83/1/2 84/1/2 85/1/2
f 82/1/2 83/1/2 85/1/2
f 85/1/2 84/1/2 86/1/2
f 86/1/2 84/1/2 87/1/2
f 87/1/2 84/1/2 88/1/2
f 86/3/2 87/3/2 91/3/2
f 91/3/2 87/3/2 92/3/2
f 89/1/2 90/1/2 95/1/2
f 90/3/2 91/3/2 95/3/2
f 92/3/2 93/3/2 95/3/2
f 91/3/2 92/3/2 95/3/2
f 93/1/2 94/1/2 96/1/2
f 95/3/2 93/3/2 96/3/2
f 89/1/2 95/1/2 97/1/2
f 95/1/2 96/1/2 97/1/2
f 96/1/2 94/1/2 98/1/2
f 97/1/2 96/1/2 98/1/2
f 99/2/2 100/2/2 101/2/2
f 101/2/2 100/2/2 102/2/2
f 103/3/2 104/3/2 105/3/2
f 105/3/2 104/3/2 106/3/2
f 107/3/2 108/3/2 109/3/2
f 109/3/2 108/3/2 110/3/2
f 111/3/2 112/3/2 113/3/2
f 113/3/2 112/3/2 114/3/2
f 115/3/2 116/3/2 117/3/2
f 117/3/2 116/3/2 118/3/2
f 121/3/3 120/3/3 119/3/3
f 122/3/3 120/3/3 121/3/3
f 125/2/3 124/2/3 123/2/3
f 126/2/3 124/2/3 125/2/3
f 133/3/3 128/3/3 127/3/3
f 134/3/3 130/3/3 129/3/3
f 135/3/3 130/3/3 134/3/3
f 136/3/3 132/3/3 131/3/3
f 137/3/3 132/3/3 136/3/3
f 139/3/3 133/3/3 127/3/3
f 139/1/3 134/1/3 133/1/3
f 140/3/3 135/3/3 134/3/3
f 140/1/3 134/1/3 139/1/3
f 141/1/3 136/1/3 135/1/3
f 141/3/3 135/3/3 140/3/3
f 142/3/3 137/3/3 136/3/3
f 142/1/3 136/1/3 141/1/3
f 143/1/3 138/1/3 137/1/3
f 143/3/3 137/3/3 142/3/3
f 144/1/3 138/1/3 143/1/3
f 145/3/3 139/3/3 127/3/3
f 146/3/3 139/3/3 145/3/3
f 147/3/3 141/3/3 140/3/3
f 148/3/3 141/3/3 147/3/3
f 149/3/3 143/3/3 142/3/3
f 150/3/3 143/3/3 149/3/3
f 157/3/3 152/3/3 151/3/3
f 158/3/3 152/3/3 157/3/3
f 159/3/3 154/3/3 153/3/3
f 160/3/3 154/3/3 159/3/3
f 161/3/3 156/3/3 155/3/3
f 162/3/3 156/3/3 161/3/3
f 169/3/3 164/3/3 163/3/3
f 170/3/3 164/3/3 169/3/3
f 171/3/3 166/3/3 165/3/3
f 172/3/3 166/3/3 171/3/3
f 173/3/3 168/3/3 167/3/3
f 174/3/3 168/3/3 173/3/3
f 175/3/4 176/3/4 181/3/4
f 181/3/4 176/3/4 182/3/4
f 177/3/4 178/3/4 183/3/4
f 183/3/4 178/3/4 184/3/4
f 179/3/4 180/3/4 185/3/4
f 185/3/4 180/3/4 186/3/4
f 187/3/4 188/3/4 193/3/4
f 193/3/4 188/3/4 194/3/4
f 189/3/4 190/3/4 195/3/4
f 195/3/4 190/3/4 196/3/4
f 191/3/4 192/3/4 197/3/4
f 197/3/4 192/3/4 198/3/4
f 199/2/4 200/2/4 201/2/4
f 201/2/4 200/2/4 202/2/4
f 203/3/4 204/3/4 209/3/4
f 205/3/4 206/3/4 210/3/4
f 210/3/4 206/3/4 211/3/4
f 207/3/4 208/3/4 212/3/4
f 212/3/4 208/3/4 213/3/4
f 203/3/4 209/3/4 215/3/4
f 209/1/4 210/1/4 215/1/4
f 210/3/4 211/3/4 216/3/4
f 215/1/4 210/1/4 216/1/4
f 211/1/4 212/1/4 217/1/4
f 216/3/4 211/3/4 217/3/4
f 212/3/4 213/3/4 218/3/4
f 217/1/4 212/1/4 218/1/4
f 213/1/4 214/1/4 219/1/4
f 218/3/4 213/3/4 219/3/4
f 219/1/4 214/1/4 220/1/4
f 203/3/4 215/3/4 221/3/4
f 221/3/4 215/3/4 222/3/4
f 216/3/4 217/3/4 223/3/4
f 223/3/4 217/3/4 224/3/4
f 218/3/4 219/3/4 225/3/4
f 225/3/4 219/3/4 226/3/4
f 227/3/4 228/3/4 229/3/4
f 229/3/4 228/3/4 230/3/4
f 233/3/5 232/3/5 231/3/5
f 234/3/5 232/3/5 233/3/5
f 235/3/5 232/3/5 234/3/5
f 236/3/5 232/3/5 235/3/5
f 237/3/5 233/3/5 231/3/5
f 238/3/5 235/3/5 234/3/5
f 239/3/5 235/3/5 238/3/5
f 240/3/5 232/3/5 236/3/5
f 241/3/5 239/3/5 238/3/5
f 241/3/5 240/3/5 239/3/5
f 241/3/5 237/3/5 231/3/5
f 241/3/5 238/3/5 237/3/5
f 242/3/5 232/3/5 240/3/5
f 242/3/5 240/3/5 241/3/5
f 247/3/5 244/3/5 243/3/5
f 248/3/5 244/3/5 247/3/5
f 249/3/5 246/3/5 245/3/5
f 250/3/5 246/3/5 249/3/5
f 251/3/5 247/3/5 243/3/5
f 254/3/5 246/3/5 250/3/5
f 255/3/5 252/3/5 251/3/5
f 255/3/5 251/3/5 243/3/5
f 256/3/5 252/3/5 255/3/5
f 257/3/5 254/3/5 253/3/5
f 258/3/5 246/3/5 254/3/5
f 258/3/5 254/3/5 257/3/5
f 263/3/5 260/3/5 259/3/5
f 264/3/5 260/3/5 263/3/5
f 265/3/5 262/3/5 261/3/5
f 266/3/5 262/3/5 265/3/5
f 267/3/5 263/3/5 259/3/5
f 270/3/5 262/3/5 266/3/5
f 271/3/5 268/3/5 267/3/5
f 271/3/5 267/3/5 259/3/5
f 272/3/5 268/3/5 271/3/5
f 273/3/5 270/3/5 269/3/5
f 274/3/5 262/3/5 270/3/5
f 274/3/5 270/3/5 273/3/5
f 277/3/5 276/3/5 275/3/5
f 278/3/5 276/3/5 277/3/5
f 279/3/5 277/3/5 275/3/5
f 280/3/5 277/3/5 279/3/5
f 281/3/5 279/3/5 275/3/5
f 281/1/5 280/1/5 279/1/5
f 282/1/5 280/1/5 281/1/5
f 283/3/5 282/3/5 281/3/5
f 284/3/5 276/3/5 278/3/5
f 285/3/5 283/3/5 281/3/5
f 285/3/5 284/3/5 283/3/5
f 285/3/5 281/3/5 275/3/5
f 286/3/5 276/3/5 284/3/5
f 286/3/5 284/3/5 285/3/5
f 287/3/6 288/3/6 291/3/6
f 291/3/6 288/3/6 292/3/6
f 289/3/6 290/3/6 293/3/6
f 293/3/6 290/3/6 294/3/6
f 287/3/6 291/3/6 295/3/6
f 294/3/6 290/3/6 298/3/6
f 295/3/6 296/3/6 299/3/6
f 287/3/6 295/3/6 299/3/6
f 299/3/6 296/3/6 300/3/6
f 297/3/6 298/3/6 301/3/6
f 298/3/6 290/3/6 302/3/6
f 301/3/6 298/3/6 302/3/6
f 303/3/6 304/3/6 307/3/6
f 307/3/6 304/3/6 308/3/6
f 305/3/6 306/3/6 309/3/6
f 309/3/6 306/3/6 310/3/6
f 303/3/6 307/3/6 311/3/6
f 310/3/6 306/3/6 314/3/6
f 311/3/6 312/3/6 315/3/6
f 303/3/6 311/3/6 315/3/6
f 315/3/6 312/3/6 316/3/6
f 313/3/6 314/3/6 317/3/6
f 314/3/6 306/3/6 318/3/6
f 317/3/6 314/3/6 318/3/6
f 321/3/6 322/3/6 323/3/6
f 319/3/6 320/3/6 324/3/6
f 324/3/6 320/3/6 325/3/6
f 323/3/6 322/3/6 326/3/6
f 326/3/6 322/3/6 327/3/6
f 319/3/6 324/3/6 328/3/6
f 327/3/6 322/3/6 331/3/6
f 330/3/6 331/3/6 332/3/6
f 328/3/6 329/3/6 333/3/6
f 319/3/6 328/3/6 333/3/6
f 333/3/6 329/3/6 334/3/6
f 332/3/6 331/3/6 335/3/6
f 331/3/6 322/3/6 336/3/6
f 335/3/6 331/3/6 336/3/6
f 337/3/6 338/3/6 339/3/6
f 339/3/6 338/3/6 340/3/6
f 337/3/6 339/3/6 341/3/6
f 340/3/6 338/3/6 342/3/6
f 337/3/6 341/3/6 343/3/6
f 341/3/6 342/3/6 343/3/6
f 342/3/6 338/3/6 344/3/6
f 343/3/6 342/3/6 344/3/6
f 345/2/6 346/2/6 347/2/6
f 347/2/6 346/2/6 348/2/6
