# MagicaVoxel @ Ephtracy

# group
o 

# material
mtllib dessicant-3.mtl
usemtl palette

# normals
vn -1 0 0
vn 1 0 0
vn 0 0 1
vn 0 0 -1
vn 0 -1 0
vn 0 1 0

# texcoords
vt 0.0917969 0.5
vt 0.462891 0.5
vt 0.650391 0.5
vt 0.908203 0.5

# verts
v -0.6 -1.7 0.5
v -0.6 -1.7 -0.6
v -0.6 -1.2 0.5
v -0.6 -1.2 -0.6
v -0.6 1.7 0.5
v -0.6 1.7 -0.6
v 0.6 -1.7 0.5
v 0.6 -1.7 -0.6
v 0.6 -1.6 0.5
v 0.6 -1.6 -0.5
v 0.6 -1.2 0.5
v 0.6 -1.2 -0.5
v 0.6 -1.2 -0.6
v 0.6 1.7 0.5
v 0.6 1.7 -0.6
v -0.6 -1.7 0.5
v -0.6 -1.2 0.5
v -0.6 1.7 0.5
v 0.2 -1.6 0.5
v 0.2 -1.2 0.5
v 0.6 -1.7 0.5
v 0.6 -1.6 0.5
v 0.6 -1.2 0.5
v 0.6 1.7 0.5
v -0.6 -1.7 -0.6
v -0.6 -1.2 -0.6
v -0.6 1.7 -0.6
v 0.6 -1.7 -0.6
v 0.6 -1.2 -0.6
v 0.6 1.7 -0.6
v -0.6 -1.7 0.5
v 0.6 -1.7 0.5
v -0.6 -1.7 -0.6
v 0.6 -1.7 -0.6
v -0.6 1.7 0.5
v 0.6 1.7 0.5
v -0.6 1.7 -0.6
v 0.6 1.7 -0.6

# faces
f 3/3/1 2/3/1 1/3/1
f 4/3/1 2/3/1 3/3/1
f 5/2/1 4/2/1 3/2/1
f 6/2/1 4/2/1 5/2/1
f 7/3/2 8/3/2 9/3/2
f 9/3/2 8/3/2 10/3/2
f 9/4/2 10/4/2 11/4/2
f 10/3/2 8/3/2 12/3/2
f 11/4/2 10/4/2 12/4/2
f 12/3/2 8/3/2 13/3/2
f 11/2/2 12/2/2 14/2/2
f 12/2/2 13/2/2 14/2/2
f 14/2/2 13/2/2 15/2/2
f 19/3/3 17/3/3 16/3/3
f 20/2/3 18/2/3 17/2/3
f 20/3/3 17/3/3 19/3/3
f 21/3/3 19/3/3 16/3/3
f 22/4/3 20/4/3 19/4/3
f 22/3/3 19/3/3 21/3/3
f 23/2/3 18/2/3 20/2/3
f 23/4/3 20/4/3 22/4/3
f 24/2/3 18/2/3 23/2/3
f 25/3/4 26/3/4 28/3/4
f 26/2/4 27/2/4 29/2/4
f 28/3/4 26/3/4 29/3/4
f 29/2/4 27/2/4 30/2/4
f 33/3/5 32/3/5 31/3/5
f 34/3/5 32/3/5 33/3/5
f 35/2/6 36/2/6 37/2/6
f 37/2/6 36/2/6 38/2/6
