# MagicaVoxel @ Ephtracy

# group
o 

# material
mtllib woodenman-3.mtl
usemtl palette

# normals
vn -1 0 0
vn 1 0 0
vn 0 0 1
vn 0 0 -1
vn 0 -1 0
vn 0 1 0

# texcoords
vt 0.0839844 0.5
vt 0.267578 0.5
vt 0.349609 0.5
vt 0.373047 0.5
vt 0.462891 0.5
vt 0.494141 0.5
vt 0.845703 0.5
vt 0.876953 0.5

# verts
v -0.9 0.5 1
v -0.9 0.5 -1
v -0.9 0.8 1
v -0.9 0.8 -1
v -0.9 2.4 1
v -0.9 2.4 -1
v -0.5 -2.3 1
v -0.5 -2.3 -1
v -0.5 0.5 1
v -0.5 0.5 -1
v 0.9 -2.3 1
v 0.9 -2.3 -1
v 0.9 0.5 1
v 0.9 0.5 -1
v 0.9 0.8 1
v 0.9 0.8 -1
v 0.9 2.4 1
v 0.9 2.4 -1
v -0.9 0.5 1
v -0.9 0.8 1
v -0.9 2.4 1
v -0.5 -2.3 1
v -0.5 0.5 1
v 0.9 -2.3 1
v 0.9 0.5 1
v 0.9 0.8 1
v 0.9 2.4 1
v -0.9 0.5 -1
v -0.9 0.8 -1
v -0.9 2.4 -1
v -0.5 -2.3 -1
v -0.5 0.5 -1
v 0.9 -2.3 -1
v 0.9 0.5 -1
v 0.9 0.8 -1
v 0.9 2.4 -1
v -0.5 -2.3 1
v 0.9 -2.3 1
v -0.5 -2.3 -1
v 0.9 -2.3 -1
v -0.9 0.5 1
v -0.5 0.5 1
v -0.9 0.5 -1
v -0.5 0.5 -1
v -0.9 2.4 1
v 0.9 2.4 1
v -0.9 2.4 -1
v 0.9 2.4 -1

# faces
f 3/2/1 2/2/1 1/2/1
f 4/2/1 2/2/1 3/2/1
f 5/4/1 4/4/1 3/4/1
f 6/4/1 4/4/1 5/4/1
f 9/6/1 8/6/1 7/6/1
f 10/6/1 8/6/1 9/6/1
f 11/6/2 12/6/2 13/6/2
f 13/6/2 12/6/2 14/6/2
f 13/2/2 14/2/2 15/2/2
f 15/2/2 14/2/2 16/2/2
f 15/4/2 16/4/2 17/4/2
f 17/4/2 16/4/2 18/4/2
f 23/2/3 20/2/3 19/2/3
f 24/6/3 23/6/3 22/6/3
f 25/2/3 20/2/3 23/2/3
f 25/6/3 23/6/3 24/6/3
f 26/4/3 21/4/3 20/4/3
f 26/2/3 20/2/3 25/2/3
f 27/4/3 21/4/3 26/4/3
f 28/2/4 29/2/4 32/2/4
f 31/6/4 32/6/4 33/6/4
f 32/2/4 29/2/4 34/2/4
f 33/6/4 32/6/4 34/6/4
f 29/4/4 30/4/4 35/4/4
f 34/2/4 29/2/4 35/2/4
f 35/4/4 30/4/4 36/4/4
f 39/6/5 38/6/5 37/6/5
f 40/6/5 38/6/5 39/6/5
f 43/2/5 42/2/5 41/2/5
f 44/2/5 42/2/5 43/2/5
f 45/4/6 46/4/6 47/4/6
f 47/4/6 46/4/6 48/4/6
