# MagicaVoxel @ Ephtracy

# group
o 

# material
mtllib officeman2-4.mtl
usemtl palette

# normals
vn -1 0 0
vn 1 0 0
vn 0 0 1
vn 0 0 -1
vn 0 -1 0
vn 0 1 0

# texcoords
vt 0.224609 0.5
vt 0.275391 0.5
vt 0.330078 0.5
vt 0.462891 0.5
vt 0.494141 0.5
vt 0.720703 0.5
vt 0.845703 0.5

# verts
v -1.7 -1.3 1.3
v -1.7 -1.3 -1
v -1.7 -1.3 -1.4
v -1.7 -0.6 0.3
v -1.7 -0.6 -1
v -1.7 -0.5 0.5
v -1.7 -0.5 0.3
v -1.7 -0.3 0.8
v -1.7 -0.3 0.5
v -1.7 -0.1 1.3
v -1.7 -0.1 1.2
v -1.7 -1.19209e-07 1.2
v -1.7 -1.19209e-07 0.8
v -1.7 0.2 1.2
v -1.7 0.2 0.8
v -1.7 0.3 1.3
v -1.7 0.3 1.2
v -1.7 0.4 1.3
v -1.7 0.4 0.8
v -1.7 1.4 1.3
v -1.7 1.4 -1.4
v 1.7 -1.3 1.3
v 1.7 -1.3 1.19209e-07
v 1.7 -1.3 -1.4
v 1.7 -0.5 0.4
v 1.7 -0.5 1.19209e-07
v 1.7 -0.1 1.3
v 1.7 -0.1 1.2
v 1.7 -1.19209e-07 1.2
v 1.7 -1.19209e-07 0.4
v 1.7 0.3 1.3
v 1.7 0.3 1.2
v 1.7 1.4 1.3
v 1.7 1.4 -1.4
v -1.7 -1.3 1.3
v -1.7 -0.1 1.3
v -1.7 0.3 1.3
v -1.7 0.4 1.3
v -1.7 1.4 1.3
v -1.6 0.3 1.3
v -1.6 0.4 1.3
v -1.1 -0.4 1.3
v -1.1 -0.1 1.3
v -1.1 0.3 1.3
v -1.1 0.4 1.3
v -0.9 -0.2 1.3
v -0.9 0.0999999 1.3
v -0.7 -1.3 1.3
v -0.7 -0.8 1.3
v -0.7 0.6 1.3
v -0.7 0.8 1.3
v -0.6 0.4 1.3
v -0.6 0.6 1.3
v -0.5 -0.8 1.3
v -0.5 -0.7 1.3
v -0.5 -0.2 1.3
v -0.5 0.0999999 1.3
v -0.4 -0.7 1.3
v -0.4 -0.5 1.3
v -0.3 -0.4 1.3
v -0.3 -0.1 1.3
v -0.3 0.3 1.3
v -0.3 0.4 1.3
v -0.3 0.8 1.3
v -0.3 1 1.3
v 0 1 1.3
v 0 1.1 1.3
v 0.0999999 0.6 1.3
v 0.0999999 1 1.3
v 0.2 0.5 1.3
v 0.2 0.6 1.3
v 0.2 1 1.3
v 0.2 1.1 1.3
v 0.3 -0.4 1.3
v 0.3 -0.1 1.3
v 0.3 0.3 1.3
v 0.3 0.4 1.3
v 0.3 0.5 1.3
v 0.3 0.7 1.3
v 0.4 -0.7 1.3
v 0.4 -0.5 1.3
v 0.5 -0.8 1.3
v 0.5 -0.7 1.3
v 0.5 -0.2 1.3
v 0.5 0.0999999 1.3
v 0.6 0.7 1.3
v 0.6 0.8 1.3
v 0.7 -1.3 1.3
v 0.7 -0.8 1.3
v 0.7 0.4 1.3
v 0.7 0.5 1.3
v 0.8 0.5 1.3
v 0.8 0.8 1.3
v 0.9 -0.2 1.3
v 0.9 0.0999999 1.3
v 1.1 -0.4 1.3
v 1.1 -0.1 1.3
v 1.1 0.3 1.3
v 1.1 0.4 1.3
v 1.7 -1.3 1.3
v 1.7 -0.1 1.3
v 1.7 0.3 1.3
v 1.7 1.4 1.3
v -1.7 -1.3 -1.4
v -1.7 1.4 -1.4
v 1.7 -1.3 -1.4
v 1.7 1.4 -1.4
v -1.7 -1.3 1.3
v -0.7 -1.3 1.3
v 0.7 -1.3 1.3
v 1.7 -1.3 1.3
v -0.7 -1.3 1.2
v 0.7 -1.3 1.2
v 1.6 -1.3 1.19209e-07
v 1.7 -1.3 1.19209e-07
v -1.7 -1.3 -1
v -1.6 -1.3 -1
v -1.6 -1.3 -1.3
v 1.6 -1.3 -1.3
v -1.7 -1.3 -1.4
v 1.7 -1.3 -1.4
v -1.7 1.4 1.3
v 1.7 1.4 1.3
v -1.7 1.4 -1.4
v 1.7 1.4 -1.4

# faces
f 4/5/1 2/5/1 1/5/1
f 5/3/1 3/3/1 2/3/1
f 5/5/1 2/5/1 4/5/1
f 6/5/1 4/5/1 1/5/1
f 7/3/1 5/3/1 4/3/1
f 7/5/1 4/5/1 6/5/1
f 8/5/1 6/5/1 1/5/1
f 9/3/1 7/3/1 6/3/1
f 9/5/1 6/5/1 8/5/1
f 10/5/1 8/5/1 1/5/1
f 11/5/1 8/5/1 10/5/1
f 12/2/1 11/2/1 10/2/1
f 12/5/1 8/5/1 11/5/1
f 13/3/1 9/3/1 8/3/1
f 13/5/1 8/5/1 12/5/1
f 14/2/1 12/2/1 10/2/1
f 14/4/1 13/4/1 12/4/1
f 15/3/1 9/3/1 13/3/1
f 15/4/1 13/4/1 14/4/1
f 16/2/1 14/2/1 10/2/1
f 17/5/1 15/5/1 14/5/1
f 17/2/1 14/2/1 16/2/1
f 18/5/1 17/5/1 16/5/1
f 19/3/1 9/3/1 15/3/1
f 19/5/1 17/5/1 18/5/1
f 19/5/1 15/5/1 17/5/1
f 20/3/1 19/3/1 18/3/1
f 21/3/1 3/3/1 5/3/1
f 21/3/1 19/3/1 20/3/1
f 21/3/1 5/3/1 7/3/1
f 21/3/1 9/3/1 19/3/1
f 21/3/1 7/3/1 9/3/1
f 22/5/2 23/5/2 25/5/2
f 23/3/2 24/3/2 26/3/2
f 25/5/2 23/5/2 26/5/2
f 22/5/2 25/5/2 27/5/2
f 27/5/2 25/5/2 28/5/2
f 27/2/2 28/2/2 29/2/2
f 28/5/2 25/5/2 29/5/2
f 25/3/2 26/3/2 30/3/2
f 29/5/2 25/5/2 30/5/2
f 27/2/2 29/2/2 31/2/2
f 29/3/2 30/3/2 32/3/2
f 31/2/2 29/2/2 32/2/2
f 31/3/2 32/3/2 33/3/2
f 26/3/2 24/3/2 34/3/2
f 33/3/2 32/3/2 34/3/2
f 30/3/2 26/3/2 34/3/2
f 32/3/2 30/3/2 34/3/2
f 40/2/3 37/2/3 36/2/3
f 40/5/3 38/5/3 37/5/3
f 41/3/3 39/3/3 38/3/3
f 41/5/3 38/5/3 40/5/3
f 42/5/3 36/5/3 35/5/3
f 43/2/3 40/2/3 36/2/3
f 43/5/3 36/5/3 42/5/3
f 44/3/3 41/3/3 40/3/3
f 44/2/3 40/2/3 43/2/3
f 45/3/3 39/3/3 41/3/3
f 45/3/3 41/3/3 44/3/3
f 46/2/3 44/2/3 43/2/3
f 46/2/3 43/2/3 42/2/3
f 46/2/3 45/2/3 44/2/3
f 47/2/3 45/2/3 46/2/3
f 48/5/3 42/5/3 35/5/3
f 49/5/3 42/5/3 48/5/3
f 50/3/3 39/3/3 45/3/3
f 51/3/3 39/3/3 50/3/3
f 52/2/3 45/2/3 47/2/3
f 52/3/3 50/3/3 45/3/3
f 53/5/3 51/5/3 50/5/3
f 53/3/3 50/3/3 52/3/3
f 54/5/3 42/5/3 49/5/3
f 54/1/3 49/1/3 48/1/3
f 55/5/3 42/5/3 54/5/3
f 56/2/3 46/2/3 42/2/3
f 56/4/3 47/4/3 46/4/3
f 57/2/3 52/2/3 47/2/3
f 57/4/3 47/4/3 56/4/3
f 58/5/3 42/5/3 55/5/3
f 58/1/3 55/1/3 54/1/3
f 59/5/3 42/5/3 58/5/3
f 60/2/3 57/2/3 56/2/3
f 60/5/3 42/5/3 59/5/3
f 60/2/3 56/2/3 42/2/3
f 61/2/3 57/2/3 60/2/3
f 62/2/3 52/2/3 57/2/3
f 62/2/3 57/2/3 61/2/3
f 63/5/3 53/5/3 52/5/3
f 63/2/3 52/2/3 62/2/3
f 64/5/3 51/5/3 53/5/3
f 64/5/3 53/5/3 63/5/3
f 64/3/3 39/3/3 51/3/3
f 65/3/3 39/3/3 64/3/3
f 66/5/3 63/5/3 62/5/3
f 66/3/3 39/3/3 65/3/3
f 66/5/3 65/5/3 64/5/3
f 66/5/3 64/5/3 63/5/3
f 67/3/3 39/3/3 66/3/3
f 68/5/3 66/5/3 62/5/3
f 68/5/3 67/5/3 66/5/3
f 69/5/3 67/5/3 68/5/3
f 70/5/3 68/5/3 62/5/3
f 71/3/3 69/3/3 68/3/3
f 71/5/3 68/5/3 70/5/3
f 72/5/3 67/5/3 69/5/3
f 72/3/3 69/3/3 71/3/3
f 73/3/3 39/3/3 67/3/3
f 73/5/3 67/5/3 72/5/3
f 74/5/3 60/5/3 59/5/3
f 74/5/3 61/5/3 60/5/3
f 75/2/3 62/2/3 61/2/3
f 75/5/3 61/5/3 74/5/3
f 76/5/3 70/5/3 62/5/3
f 76/2/3 62/2/3 75/2/3
f 77/5/3 70/5/3 76/5/3
f 78/3/3 73/3/3 72/3/3
f 78/5/3 70/5/3 77/5/3
f 78/3/3 72/3/3 71/3/3
f 78/3/3 71/3/3 70/3/3
f 79/3/3 73/3/3 78/3/3
f 80/6/3 59/6/3 58/6/3
f 80/1/3 58/1/3 54/1/3
f 81/5/3 74/5/3 59/5/3
f 81/6/3 59/6/3 80/6/3
f 82/1/3 54/1/3 48/1/3
f 82/1/3 80/1/3 54/1/3
f 83/5/3 81/5/3 80/5/3
f 83/1/3 80/1/3 82/1/3
f 84/2/3 77/2/3 76/2/3
f 84/2/3 76/2/3 75/2/3
f 84/2/3 75/2/3 74/2/3
f 85/2/3 77/2/3 84/2/3
f 86/3/3 73/3/3 79/3/3
f 86/5/3 79/5/3 78/5/3
f 86/5/3 78/5/3 77/5/3
f 87/3/3 73/3/3 86/3/3
f 88/1/3 82/1/3 48/1/3
f 89/5/3 83/5/3 82/5/3
f 89/1/3 82/1/3 88/1/3
f 90/2/3 77/2/3 85/2/3
f 90/5/3 86/5/3 77/5/3
f 90/5/3 87/5/3 86/5/3
f 91/5/3 87/5/3 90/5/3
f 92/3/3 91/3/3 90/3/3
f 92/5/3 87/5/3 91/5/3
f 93/3/3 73/3/3 87/3/3
f 93/5/3 87/5/3 92/5/3
f 94/3/3 85/3/3 84/3/3
f 94/2/3 84/2/3 74/2/3
f 95/2/3 90/2/3 85/2/3
f 95/3/3 85/3/3 94/3/3
f 96/5/3 74/5/3 81/5/3
f 96/5/3 81/5/3 83/5/3
f 96/2/3 95/2/3 94/2/3
f 96/2/3 94/2/3 74/2/3
f 96/5/3 89/5/3 88/5/3
f 96/5/3 83/5/3 89/5/3
f 97/2/3 95/2/3 96/2/3
f 98/2/3 90/2/3 95/2/3
f 98/2/3 95/2/3 97/2/3
f 99/3/3 93/3/3 92/3/3
f 99/2/3 90/2/3 98/2/3
f 99/3/3 92/3/3 90/3/3
f 100/5/3 97/5/3 96/5/3
f 100/5/3 96/5/3 88/5/3
f 101/2/3 98/2/3 97/2/3
f 101/5/3 97/5/3 100/5/3
f 102/3/3 99/3/3 98/3/3
f 102/2/3 98/2/3 101/2/3
f 103/3/3 93/3/3 99/3/3
f 103/3/3 99/3/3 102/3/3
f 103/3/3 39/3/3 73/3/3
f 103/3/3 73/3/3 93/3/3
f 104/3/4 105/3/4 106/3/4
f 106/3/4 105/3/4 107/3/4
f 112/5/5 109/5/5 108/5/5
f 112/1/5 110/1/5 109/1/5
f 113/5/5 111/5/5 110/5/5
f 113/1/5 110/1/5 112/1/5
f 114/5/5 113/5/5 112/5/5
f 114/5/5 111/5/5 113/5/5
f 115/5/5 111/5/5 114/5/5
f 116/5/5 112/5/5 108/5/5
f 116/5/5 114/5/5 112/5/5
f 117/5/5 114/5/5 116/5/5
f 118/3/5 117/3/5 116/3/5
f 118/5/5 114/5/5 117/5/5
f 119/3/5 115/3/5 114/3/5
f 119/5/5 114/5/5 118/5/5
f 120/3/5 118/3/5 116/3/5
f 120/3/5 119/3/5 118/3/5
f 121/3/5 115/3/5 119/3/5
f 121/3/5 119/3/5 120/3/5
f 122/3/6 123/3/6 124/3/6
f 124/3/6 123/3/6 125/3/6
