# MagicaVoxel @ Ephtracy

# group
o 

# material
mtllib officeman2-0.mtl
usemtl palette

# normals
vn -1 0 0
vn 1 0 0
vn 0 0 1
vn 0 0 -1
vn 0 -1 0
vn 0 1 0

# texcoords
vt 0.0839844 0.5
vt 0.177734 0.5
vt 0.267578 0.5
vt 0.330078 0.5
vt 0.349609 0.5
vt 0.494141 0.5
vt 0.505859 0.5
vt 0.513672 0.5
vt 0.876953 0.5
vt 0.908203 0.5
vt 0.939453 0.5

# verts
v -1.7 -2.1 1
v -1.7 -2.1 -1.1
v -1.7 2.2 1
v -1.7 2.2 -1.1
v 1.7 -2.1 1
v 1.7 -2.1 -1.1
v 1.7 2.2 1
v 1.7 2.2 -1.1
v -1.7 -2.1 1
v -1.7 2.2 1
v -0.9 -2 1
v -0.9 -1.4 1
v -0.9 2.1 1
v -0.7 1.8 1
v -0.7 2.1 1
v -0.6 1.7 1
v -0.6 1.8 1
v -0.4 -2 1
v -0.4 -1.4 1
v -0.4 1.3 1
v -0.4 1.7 1
v -0.2 -0.2 1
v -0.2 1.3 1
v 0 -2 1
v 0 -1.4 1
v 0 -0.4 1
v 0 -0.2 1
v 0.2 -0.4 1
v 0.2 1.6 1
v 0.3 1.6 1
v 0.3 1.7 1
v 0.4 -2 1
v 0.4 -1.4 1
v 0.6 1.7 1
v 0.6 1.8 1
v 0.7 1.8 1
v 0.7 2.1 1
v 0.9 -2 1
v 0.9 -1.4 1
v 0.9 2.1 1
v 1.7 -2.1 1
v 1.7 2.2 1
v -1.7 -2.1 -1.1
v -1.7 2.2 -1.1
v 1.7 -2.1 -1.1
v 1.7 2.2 -1.1
v -1.7 -2.1 1
v 1.7 -2.1 1
v -1.7 -2.1 -1.1
v 1.7 -2.1 -1.1
v -1.7 2.2 1
v 1.7 2.2 1
v -1.7 2.2 -1.1
v 1.7 2.2 -1.1

# faces
f 3/3/1 2/3/1 1/3/1
f 4/3/1 2/3/1 3/3/1
f 5/3/2 6/3/2 7/3/2
f 7/3/2 6/3/2 8/3/2
f 11/3/3 10/3/3 9/3/3
f 12/3/3 10/3/3 11/3/3
f 13/3/3 10/3/3 12/3/3
f 14/10/3 13/10/3 12/10/3
f 15/3/3 10/3/3 13/3/3
f 15/10/3 13/10/3 14/10/3
f 16/10/3 14/10/3 12/10/3
f 17/6/3 15/6/3 14/6/3
f 17/10/3 14/10/3 16/10/3
f 18/3/3 11/3/3 9/3/3
f 18/4/3 12/4/3 11/4/3
f 19/10/3 16/10/3 12/10/3
f 19/4/3 12/4/3 18/4/3
f 20/10/3 16/10/3 19/10/3
f 21/6/3 17/6/3 16/6/3
f 21/10/3 16/10/3 20/10/3
f 22/10/3 20/10/3 19/10/3
f 23/2/3 21/2/3 20/2/3
f 23/10/3 20/10/3 22/10/3
f 24/3/3 18/3/3 9/3/3
f 24/7/3 19/7/3 18/7/3
f 25/10/3 22/10/3 19/10/3
f 25/7/3 19/7/3 24/7/3
f 26/10/3 22/10/3 25/10/3
f 27/2/3 23/2/3 22/2/3
f 27/10/3 22/10/3 26/10/3
f 28/10/3 26/10/3 25/10/3
f 28/2/3 27/2/3 26/2/3
f 29/2/3 21/2/3 23/2/3
f 29/2/3 27/2/3 28/2/3
f 29/2/3 23/2/3 27/2/3
f 30/10/3 29/10/3 28/10/3
f 30/2/3 21/2/3 29/2/3
f 31/6/3 17/6/3 21/6/3
f 31/2/3 21/2/3 30/2/3
f 32/8/3 25/8/3 24/8/3
f 32/3/3 24/3/3 9/3/3
f 33/10/3 30/10/3 28/10/3
f 33/8/3 25/8/3 32/8/3
f 33/10/3 28/10/3 25/10/3
f 33/10/3 31/10/3 30/10/3
f 34/6/3 17/6/3 31/6/3
f 34/10/3 31/10/3 33/10/3
f 35/6/3 15/6/3 17/6/3
f 35/6/3 17/6/3 34/6/3
f 36/10/3 35/10/3 34/10/3
f 36/6/3 15/6/3 35/6/3
f 37/3/3 10/3/3 15/3/3
f 37/6/3 15/6/3 36/6/3
f 38/3/3 32/3/3 9/3/3
f 38/4/3 33/4/3 32/4/3
f 39/10/3 34/10/3 33/10/3
f 39/4/3 33/4/3 38/4/3
f 39/10/3 36/10/3 34/10/3
f 39/10/3 37/10/3 36/10/3
f 40/3/3 10/3/3 37/3/3
f 40/10/3 37/10/3 39/10/3
f 41/3/3 38/3/3 9/3/3
f 41/3/3 39/3/3 38/3/3
f 41/3/3 40/3/3 39/3/3
f 42/3/3 10/3/3 40/3/3
f 42/3/3 40/3/3 41/3/3
f 43/3/4 44/3/4 45/3/4
f 45/3/4 44/3/4 46/3/4
f 49/3/5 48/3/5 47/3/5
f 50/3/5 48/3/5 49/3/5
f 51/3/6 52/3/6 53/3/6
f 53/3/6 52/3/6 54/3/6
